<svg xmlns="http://www.w3.org/2000/svg" width="450" height="450" version="1.0"><path d="M-2.165-2.703H453.56v455.725H-2.165z" style="opacity:.98;fill:#262929;fill-opacity:1;stroke:#000;stroke-width:2.48918;stroke-linejoin:miter;stroke-miterlimit:4;stroke-dasharray:none;stroke-opacity:1;display:inline"/><path d="M274.793-33.245c-66.995.933-147.301 2.319-213.23 4.54-6.072 12.486-12.079 23.933-9.817 43.943 2.258 19.972-4.583 56.784.847 87.798 6.624 37.837 26.284 32.937 35.503 86.604 4 23.28 15.552 51.844 37.915 86.083 10.06 16.98 19.643 50.883 27.776 63.673 17.119 26.92 68.802 38.036 102.493 17.007 17.667-11.735 41.327-11.082 58.348-24.053 14.896-9.713 32.94-13.73 50.172-9.723 24.802-3.738 39.757-19.354 51.086-38.39 14.218-27.023 12.663-63.134 19.975-92.071 12.638-50.021 37.585-61.103 30.394-115.023-.235-26.053 8.9-85.649 8.372-111.71l-199.834 1.322z" style="opacity:1;fill:#525552;fill-opacity:1;stroke:none;stroke-width:.704;stroke-linejoin:round;stroke-miterlimit:4;stroke-dasharray:none;stroke-opacity:1;display:inline"/><path d="M147.925 222.365c-11.28 47.403 4.478 71.032 22.172 94.907 14.394 19.42 34.222 16.465 50.337 10.614 17.787-6.457 15.973-37.446 31.76-51.824 13.138-11.964 26.598 11.469 44.345-5.62 9.047-8.71 11.936-31.188 9.882-41.245l-151.904-23.066s-4.865 8.98-6.592 16.234z" style="opacity:.774725;fill:#9ea7a9;fill-opacity:1;stroke:none;stroke-width:1;stroke-linejoin:miter;stroke-miterlimit:4;stroke-dasharray:none;stroke-opacity:1;display:inline"/><path d="m271.736 238.71 137.465 27.066c6.275 1.236 9.493-3.286 9.528-6.409l3.017-269.14-13.358 2.59-3.455 260.878-158.08-25.923c5.914 3.408 16.015 9.193 24.883 10.939z" style="opacity:1;fill:#000;fill-opacity:.282051;stroke:none;stroke-width:.704;stroke-linejoin:round;stroke-miterlimit:4;stroke-dasharray:none;stroke-opacity:1;display:inline"/><path d="m106.382-8.21 4.264 214.77 298.788 52.3 2.155-267.374-305.207.304z" style="opacity:.98;fill:#8d4f34;fill-opacity:1;stroke:none;stroke-width:1;stroke-linejoin:miter;stroke-miterlimit:4;stroke-dasharray:none;stroke-opacity:1;display:inline"/><path d="m229.824 207.724 162.997 26.29 3.506-241.867 16.65.877-3.102 266.737-76.28-14.26c-44.423-6.91-64.49-20.426-84.023-23.36-13.168-1.977-18.423-5.179-19.748-14.417z" style="opacity:1;fill:#3b2e28;fill-opacity:1;stroke:none;stroke-width:.704;stroke-linejoin:round;stroke-miterlimit:4;stroke-dasharray:none;stroke-opacity:1;display:inline"/><path d="M176.145 197.923c-.784 4.304-4.498 8.368-13.883 7.758-18.055-1.586-39.743-3.557-51.858 1.634L106.32-9.508l14.292 1.225 10.617 196.406 44.916 9.8z" style="opacity:1;fill:#4a342b;fill-opacity:1;stroke:none;stroke-width:.704;stroke-linejoin:round;stroke-miterlimit:4;stroke-dasharray:none;stroke-opacity:1;display:inline"/><path d="m120.243-7.372 2.473 197.647 269.486 46.15L395.106-8.21l-274.863.838z" style="fill:#e5eefb;fill-opacity:1;fill-rule:evenodd;stroke:#e7c48d;stroke-width:2.48918px;stroke-linecap:butt;stroke-linejoin:miter;stroke-opacity:1;display:inline"/><g style="fill:#cadbe9;fill-opacity:1;display:inline"><path d="M375.935 86.23c-.739-.148-2.073-5.142-3.92-5.88-3.037-1.215-5.692-3.14-8.624-4.116-2.675-.892-3.376-3.845-5.88-5.097-3.401-1.7-7.982-.224-11.564-1.568-2.611-.979-3.882-1.372-7.056-1.372h-2.352c-2.003 0-.866 2.65.588 2.94 2.369.474 3.562.154 5.684 1.568 2.111 1.408 4.303 1.466 6.468 2.549 1.125.562 3.973.213 5.096.588 1.156.385 4.471 3.099 5.292 3.92 1.612 1.611 4.07 2.305 5.488 3.724 1.713 1.713 2.43 2.586 4.312 3.528 1.862.93 4.034.98 6.076.98.595 0 .415-1.673.392-1.764z" style="opacity:.99;fill:#cadbe9;fill-opacity:1;stroke:none;stroke-width:.704;stroke-linejoin:round;stroke-miterlimit:4;stroke-dasharray:none;stroke-opacity:1" transform="translate(-696.455 -157.004) scale(2.48918)"/><path d="M437.178 134.21c-1.209.483-.38-2.354-1.07-3.458-1.538-2.461-3.235-6.716-4.312-9.408-.13-.327-.26-.653-.392-.98-.916-2.29-3.116-3.884-5.488-4.9-4.444-1.904-7.66-5.843-11.368-8.624l-.784-.588c-2.877-2.158-6.786-3.812-9.996-5.096-4.508-1.803-7.907-3.346-12.74-4.312-2.36-.472-5.313-3.033-7.253-2.548-5.282 1.32-6.468 1.385-6.468-4.509 0-1.508-2.223-3.08-2.548-4.704-.248-1.241 5.759-1.586 6.468-1.764.349-.087 8.03 1.641 9.017 1.764 4.92.615 10.324 0 15.288 0 5.11 0 8.394.66 12.936 1.568 2.261.453 3.8 1.391 6.076 1.96 3.632.908 8.765 1.71 11.368 4.313.339.338 1.091.646 1.78.908l-.142 8.781c-1.06-.646-2.606-1.647-3.402-2.045-3.217-1.609-7.039-1.756-10.192-3.332-2.19-1.095-4.655-.956-6.664-1.96-2.035-1.018-5.273-.633-7.448-1.176-1.64-.41-3.195-.784-4.704-.784-1.959 0-5.475.385-5.488.392-1.205.602 2.52.965 3.724 1.568 1.44.72 3.528 1.372 5.096 1.764 4.575 1.143 9.601 4.506 13.72 6.86 7.05 4.028 4.534 3.47 9.996 7.84 1.988 1.59 3.71 2.853 5.14 4.817" style="opacity:.99;fill:#cadbe9;fill-opacity:1;stroke:none;stroke-width:.704;stroke-linejoin:round;stroke-miterlimit:4;stroke-dasharray:none;stroke-opacity:1" transform="translate(-696.455 -157.004) scale(2.48918)"/></g><g style="fill:#acc3d5;fill-opacity:1;display:inline"><path d="m366.65 143.015 10.094 1.563 1.621-1.062-9.707-1.551-2.008 1.05z" style="opacity:.99;fill:#acc3d5;fill-opacity:1;stroke:none;stroke-width:.704;stroke-linejoin:round;stroke-miterlimit:4;stroke-dasharray:none;stroke-opacity:1" transform="translate(-696.455 -156.442) scale(2.48918)"/><path d="m366.615 55.022 10.038-1.605 1.646-1.638-9.645 1.54-2.039 1.703z" style="opacity:.99;fill:#acc3d5;fill-opacity:1;stroke:none;stroke-width:.704;stroke-linejoin:round;stroke-miterlimit:4;stroke-dasharray:none;stroke-opacity:1;display:inline" transform="translate(-696.455 -156.442) scale(2.48918)"/><g style="fill:#acc3d5;fill-opacity:1"><path d="M366.65 140.5s8.128 1.17 9.785 1.426c.196.03.309.045.313.04.012-.012 1.613-1.07 1.615-1.07l-.004-.002c-.192-.03-7.794-1.157-9.394-1.413a3.034 3.034 0 0 0-.314-.043c-.015.013-2.002 1.063-2.002 1.063M366.648 137.987s8.185 1.086 9.794 1.336c.19.03.302.04.31.032.025-.025 1.606-1.078 1.61-1.08l-.004-.002c-.187-.03-7.849-1.078-9.402-1.326-.19-.03-.303-.043-.312-.036-.031.026-1.996 1.076-1.996 1.076M366.647 135.473s8.24 1.005 9.801 1.246c.185.029.296.037.308.025.037-.037 1.598-1.086 1.603-1.09l-.003-.002c-.181-.029-7.903-.999-9.41-1.24-.184-.029-.296-.038-.31-.027-.046.039-1.989 1.088-1.989 1.088M366.646 132.959s8.297.923 9.809 1.157c.178.028.289.033.305.017.05-.05 1.59-1.094 1.597-1.1l-.003-.002c-.175-.028-7.957-.92-9.416-1.153-.18-.028-.291-.035-.309-.02-.062.052-1.983 1.1-1.983 1.1M366.645 130.444s8.353.843 9.816 1.069c.173.027.283.029.303.009.063-.063 1.583-1.103 1.591-1.11l-.003-.002c-.17-.027-8.011-.84-9.423-1.066-.174-.027-.285-.031-.307-.013-.078.065-1.977 1.113-1.977 1.113M366.644 127.93s8.41.76 9.823.98c.168.026.277.025.3 0 .076-.074 1.576-1.11 1.586-1.12h-.003c-.164-.027-8.066-.762-9.43-.98-.168-.027-.28-.028-.305-.006-.094.078-1.97 1.126-1.97 1.126M366.643 125.416s8.465.68 9.83.89c.162.026.27.021.299-.007.088-.087 1.568-1.118 1.58-1.13h-.003c-.159-.026-8.12-.682-9.439-.893-.162-.026-.272-.024-.303.002-.109.09-1.964 1.138-1.964 1.138M366.642 122.902s8.522.598 9.838.801c.156.025.264.017.296-.015.1-.1 1.56-1.127 1.573-1.14h-.002c-.153-.025-8.175-.603-9.446-.806-.156-.025-.266-.02-.301.009-.125.104-1.958 1.151-1.958 1.151M366.641 120.388s8.578.516 9.846.712c.15.023.257.013.293-.023.113-.112 1.553-1.135 1.567-1.15h-.002c-.147-.024-8.23-.524-9.453-.72-.15-.023-.26-.016-.3.017-.14.117-1.95 1.164-1.95 1.164M366.64 117.874s8.634.434 9.853.623c.144.022.25.009.291-.031.126-.125 1.545-1.144 1.561-1.16h-.002c-.141-.023-8.284-.444-9.46-.633-.145-.023-.254-.012-.298.025-.156.13-1.945 1.176-1.945 1.176M366.64 115.36s8.69.353 9.86.534c.138.021.244.004.288-.04.138-.137 1.537-1.15 1.555-1.169h-.002c-.135-.023-8.338-.365-9.467-.546-.14-.022-.248-.008-.296.032-.172.143-1.939 1.189-1.939 1.189M366.638 112.846s8.746.27 9.868.445c.132.02.238 0 .286-.048.15-.15 1.53-1.16 1.55-1.179l-.002-.001c-.13-.02-8.393-.285-9.475-.458-.133-.021-.242-.005-.294.04-.187.155-1.933 1.2-1.933 1.2M366.637 110.332s8.802.19 9.875.355c.127.02.232-.003.284-.055.163-.162 1.522-1.168 1.543-1.189l-.001-.001c-.125-.02-8.447-.206-9.483-.371-.127-.02-.235-.001-.292.046-.202.17-1.926 1.215-1.926 1.215M366.636 107.818s8.859.108 9.882.266c.122.019.226-.007.282-.063.176-.175 1.515-1.176 1.537-1.199v-.001c-.12-.019-8.502-.126-9.49-.284-.122-.02-.23.002-.291.054-.218.182-1.92 1.227-1.92 1.227M366.635 105.304s8.915.026 9.89.177c.115.018.219-.011.28-.071.188-.188 1.506-1.184 1.53-1.209v-.001c-.114-.018-8.557-.047-9.498-.197a.366.366 0 0 0-.288.061c-.234.195-1.914 1.24-1.914 1.24M366.634 102.79s8.97-.056 9.897.088a.323.323 0 0 0 .277-.08c.201-.2 1.5-1.192 1.525-1.218v-.001c-.108-.017-8.61.032-9.505-.11a.362.362 0 0 0-.287.068c-.25.209-1.907 1.253-1.907 1.253M366.633 100.275s9.027-.136 9.905 0a.322.322 0 0 0 .274-.088c.214-.212 1.492-1.2 1.52-1.228l-.001-.001c-.102-.016-8.665.112-9.512-.024a.361.361 0 0 0-.285.077c-.265.22-1.9 1.264-1.9 1.264M366.632 97.761s9.083-.218 9.912-.09c.098.016.2-.023.272-.095.226-.225 1.484-1.208 1.513-1.237v-.002c-.096-.016-8.72.191-9.52.063a.362.362 0 0 0-.282.084c-.28.234-1.895 1.277-1.895 1.277M366.631 95.247s9.14-.3 9.92-.179a.326.326 0 0 0 .27-.103c.238-.237 1.476-1.217 1.506-1.247v-.002c-.09-.015-8.773.27-9.526.15a.365.365 0 0 0-.282.091c-.296.247-1.888 1.29-1.888 1.29M366.63 92.733s9.195-.381 9.927-.268c.086.013.187-.031.267-.111.252-.25 1.469-1.225 1.501-1.257.002-.001.001-.002 0-.002-.084-.014-8.828.35-9.534.237-.086-.014-.191.025-.279.098-.312.26-1.882 1.303-1.882 1.303M366.63 90.22s9.25-.464 9.933-.358c.08.012.181-.036.265-.12.264-.262 1.461-1.233 1.495-1.266.002-.002.002-.002 0-.002-.079-.013-8.882.429-9.54.324-.082-.013-.186.029-.278.106-.328.273-1.876 1.315-1.876 1.315M366.628 87.705s9.308-.545 9.942-.446c.075.011.174-.04.262-.128.277-.275 1.454-1.24 1.49-1.276v-.002c-.074-.012-8.937.508-9.549.41-.075-.012-.179.033-.276.114-.343.286-1.869 1.328-1.869 1.328M366.627 85.19s9.364-.625 9.949-.535c.07.011.168-.043.26-.135.29-.287 1.446-1.25 1.484-1.286v-.002c-.068-.011-8.991.588-9.556.497-.07-.01-.173.037-.274.121-.358.3-1.863 1.34-1.863 1.34M366.626 82.677s9.42-.708 9.956-.625c.064.01.162-.047.259-.143.3-.3 1.438-1.258 1.477-1.296v-.002c-.062-.01-9.045.667-9.563.584-.064-.01-.167.04-.272.129-.374.312-1.857 1.353-1.857 1.353M366.625 80.163s9.476-.79 9.964-.714c.057.009.155-.051.256-.151.314-.313 1.43-1.266 1.47-1.306l.001-.002c-.056-.01-9.1.746-9.57.67-.058-.008-.16.045-.27.137-.39.325-1.85 1.366-1.85 1.366M366.624 77.649s9.532-.871 9.971-.803c.052.008.15-.056.254-.16.326-.324 1.422-1.273 1.465-1.315v-.003c-.05-.008-9.154.826-9.577.759-.052-.009-.155.048-.269.143-.405.339-1.844 1.379-1.844 1.379M366.623 75.135s9.589-.953 9.979-.892c.046.007.142-.06.25-.168.34-.337 1.416-1.282 1.46-1.325v-.003c-.044-.007-9.208.906-9.585.846-.046-.008-.148.051-.266.15-.421.352-1.838 1.392-1.838 1.392M366.622 72.62s9.645-1.034 9.986-.98c.04.006.136-.064.249-.176.351-.35 1.407-1.29 1.453-1.335l.001-.003c-.04-.006-9.263.985-9.593.932-.04-.006-.142.056-.265.159-.436.364-1.83 1.403-1.83 1.403M366.621 70.106s9.7-1.115 9.993-1.07c.035.005.13-.067.247-.183.364-.362 1.4-1.298 1.447-1.345l.001-.003c-.034-.005-9.317 1.064-9.6 1.02-.035-.006-.136.059-.263.165-.452.377-1.825 1.416-1.825 1.416M366.62 67.592s9.757-1.197 10-1.16c.03.005.124-.07.245-.19.377-.375 1.392-1.307 1.44-1.355l.002-.003c-.028-.004-9.372 1.144-9.607 1.106-.029-.005-.13.063-.261.173-.468.39-1.819 1.43-1.819 1.43M366.62 65.078s9.812-1.278 10.007-1.248c.023.003.118-.076.242-.2.39-.387 1.384-1.314 1.435-1.364l.002-.003c-.023-.003-9.427 1.223-9.615 1.193-.023-.004-.123.067-.26.18-.483.404-1.812 1.442-1.812 1.442M366.618 62.564s9.87-1.36 10.016-1.337c.017.002.11-.08.239-.208.402-.4 1.377-1.323 1.429-1.374l.002-.003c-.017-.002-9.481 1.302-9.622 1.28-.018-.003-.117.07-.258.188-.499.416-1.806 1.454-1.806 1.454M366.617 60.05s9.925-1.442 10.023-1.427c.011.002.105-.083.237-.215.414-.412 1.37-1.331 1.423-1.384a.012.012 0 0 0 .002-.003c-.011-.002-9.535 1.382-9.63 1.367-.011-.002-.11.074-.255.195-.515.43-1.8 1.467-1.8 1.467M366.616 57.536s9.982-1.523 10.03-1.516c.006.001.099-.087.235-.223.427-.425 1.362-1.34 1.417-1.394a.028.028 0 0 0 .002-.003c-.005 0-9.59 1.46-9.637 1.453-.005 0-.104.079-.253.203-.53.443-1.794 1.48-1.794 1.48" style="opacity:.99;fill:#acc3d5;fill-opacity:1;stroke:none;stroke-width:.704;stroke-linejoin:round;stroke-miterlimit:4;stroke-dasharray:none;stroke-opacity:1" transform="translate(-696.455 -156.442) scale(2.48918)"/></g></g><g style="fill:#93a4b2;fill-opacity:1;display:inline"><path d="m329.809 61.83 1.673-2.038 4.602-.85.587.935 88.703-14.773c4.321-.725 7.757-2.101 11.425-2.605l-.085 2.453L329.809 61.83zM330.8 138.294l1.64-1.513 4.51.594.575 1.12 86.921 13.08c4.235.631 7.601.333 11.196.981l-.083 2.427-104.758-16.69z" style="fill:#93a4b2;fill-opacity:1;stroke:none;stroke-width:.704;stroke-linejoin:round;stroke-miterlimit:4;stroke-opacity:1" transform="matrix(2.50742 0 0 2.48918 -702.471 -157.004)"/><g style="fill:#93a4b2;fill-opacity:1"><path d="M330.773 136.109s1.62-1.504 1.634-1.52c.003-.005.13.008.339.036 1.022.134 4.137.516 4.169.51.006 0 .082.138.174.318l.409.791c.001.003.065.014.185.032 4.332.652 86.669 12.277 86.786 12.257l.15.021c4.164.565 7.494.253 11.045.86.004-.001.003.138-.001.35l-.071 2.065c0 .006-.11-.007-.32-.041-6.23-.993-104.5-15.68-104.5-15.68M330.744 133.924s1.603-1.495 1.629-1.527c.007-.01.134 0 .336.027.992.13 4.108.484 4.17.473.013-.003.091.131.18.305.16.312.402.776.411.791a.906.906 0 0 0 .184.036c4.204.633 86.603 11.502 86.837 11.463.053.006.103.013.15.02 4.165.527 7.495.186 11.046.758.007 0 .01.134.01.338l-.072 2.068c0 .011-.106.002-.31-.03-6.047-.964-104.57-14.722-104.57-14.722M330.716 131.74s1.584-1.487 1.623-1.535c.012-.014.137-.008.332.018.963.127 4.079.452 4.173.435.02-.004.1.125.186.294.155.302.399.767.413.79a.624.624 0 0 0 .18.04c4.078.614 86.54 10.727 86.89 10.669.054.005.105.011.15.018 4.166.49 7.496.12 11.047.658.01-.001.016.129.02.327l-.071 2.068c0 .018-.104.013-.302-.018-5.864-.935-104.641-13.764-104.641-13.764M330.688 129.555s1.565-1.478 1.617-1.542c.016-.019.14-.016.33.009.931.123 4.048.42 4.173.397.027-.005.108.12.192.283.15.293.396.758.416.79.007.01.068.027.178.043 3.95.594 86.474 9.952 86.941 9.875.056.004.106.01.15.016 4.166.454 7.497.053 11.047.558.014-.002.024.124.031.315l-.071 2.07c0 .023-.1.023-.293-.008-5.68-.905-104.712-12.806-104.712-12.806M330.66 127.37s1.546-1.47 1.611-1.549c.02-.023.143-.024.326 0 .902.119 4.02.388 4.176.359.033-.006.117.113.198.271.145.284.393.75.417.79.009.013.07.031.176.047 3.822.575 86.41 9.177 86.993 9.08.058.004.108.01.15.016 4.167.416 7.498-.014 11.048.457.017-.002.03.119.042.303l-.072 2.071c0 .03-.097.034-.283.004-5.497-.876-104.783-11.849-104.783-11.849M330.63 125.186s1.53-1.461 1.608-1.557c.023-.028.145-.032.322-.009.872.115 3.99.355 4.178.32.04-.007.125.108.203.261.14.274.391.742.42.788.01.017.07.037.173.052 3.695.556 86.345 8.403 87.045 8.286.06.003.11.008.15.014 4.167.379 7.5-.08 11.048.357.021-.003.038.113.053.291l-.071 2.073c-.002.035-.095.043-.275.015-5.314-.847-104.853-10.891-104.853-10.891M330.602 123.001s1.51-1.452 1.602-1.564c.027-.033.148-.04.319-.018.842.11 3.96.323 4.18.283.046-.009.133.101.209.249.135.264.388.734.421.787.013.02.072.041.172.056 3.567.537 86.28 7.628 87.096 7.492.06.002.111.006.151.012 4.167.342 7.5-.146 11.048.257.024-.003.045.108.063.28l-.07 2.073c-.002.041-.093.054-.267.027-5.13-.818-104.924-9.934-104.924-9.934M330.574 120.816s1.492-1.443 1.596-1.57c.031-.038.15-.05.316-.028.811.107 3.93.291 4.18.245.054-.01.143.095.216.237.131.255.386.726.424.787.014.023.073.046.169.06 3.44.518 86.215 6.853 87.149 6.697a1.4 1.4 0 0 1 .15.012c4.167.304 7.5-.214 11.048.156.028-.004.053.103.075.267l-.072 2.076c-.001.047-.089.064-.256.037-4.947-.788-104.995-8.976-104.995-8.976M330.546 118.632s1.473-1.435 1.59-1.578c.035-.043.153-.058.312-.037.782.103 3.902.259 4.183.207.06-.011.151.089.222.226.126.246.382.717.426.787.016.025.074.05.166.063 3.313.499 86.15 6.078 87.2 5.903.064.001.114.005.151.01 4.168.267 7.502-.28 11.049.056.031-.004.06.098.085.256l-.071 2.076c-.002.053-.087.075-.248.049-4.764-.759-105.065-8.018-105.065-8.018M330.517 116.447s1.455-1.426 1.585-1.585c.04-.047.156-.066.31-.046.75.1 3.871.227 4.184.169.066-.012.16.083.227.215.121.236.38.709.428.786.018.028.076.054.164.067 3.185.48 86.086 5.303 87.253 5.109.065 0 .115.003.15.008 4.169.23 7.503-.346 11.05-.044.034-.005.066.093.096.244l-.072 2.078c-.002.059-.083.084-.238.06-4.581-.73-105.137-7.06-105.137-7.06M330.49 114.262s1.435-1.417 1.579-1.592c.042-.052.158-.074.305-.055.722.095 3.842.195 4.187.13.073-.013.167.078.232.204.117.227.378.701.431.786.02.03.076.058.162.071 3.057.46 86.02 4.528 87.304 4.315.066 0 .117.002.15.007 4.17.192 7.504-.413 11.05-.145.039-.005.074.088.107.232l-.072 2.08c-.002.064-.08.094-.229.07-4.397-.7-105.207-6.103-105.207-6.103M330.46 112.078s1.419-1.41 1.575-1.6c.046-.057.161-.082.302-.064.691.091 3.813.162 4.188.093.08-.015.177.07.239.192.111.217.375.693.433.785.02.033.077.063.159.075 2.93.44 85.956 3.753 87.356 3.52.068 0 .118.001.151.006 4.169.156 7.504-.48 11.05-.245.042-.006.08.083.117.22l-.071 2.08c-.003.072-.078.106-.22.083-4.215-.671-105.278-5.145-105.278-5.145M330.432 109.893s1.4-1.4 1.57-1.607c.05-.061.163-.09.298-.073.661.087 3.783.13 4.19.055.086-.016.185.065.244.18.107.209.373.685.435.785.023.036.079.067.157.079 2.803.422 85.892 2.979 87.408 2.726.07-.002.12 0 .151.004 4.17.119 7.506-.546 11.05-.344.046-.007.088.076.129.207l-.072 2.082c-.003.077-.075.116-.211.094-4.031-.642-105.349-4.188-105.349-4.188M330.404 107.708s1.381-1.391 1.563-1.614c.055-.066.167-.099.295-.082.632.084 3.754.098 4.192.017.093-.017.194.059.25.17.103.198.37.675.438.783.025.04.08.072.154.083 2.676.403 85.827 2.204 87.46 1.932a.991.991 0 0 1 .152.003c4.169.08 7.506-.613 11.05-.445.049-.008.095.071.14.195l-.073 2.084c-.002.082-.072.126-.202.105-3.848-.613-105.419-3.23-105.419-3.23M330.376 105.524s1.362-1.383 1.558-1.621c.058-.071.169-.108.291-.092.602.08 3.724.066 4.194-.021.1-.018.202.053.256.158.097.189.367.668.44.783.026.042.08.076.151.087 2.548.383 85.763 1.429 87.512 1.137a.967.967 0 0 1 .152.002c4.17.044 7.507-.679 11.05-.545.053-.008.102.066.15.183l-.071 2.085c-.003.089-.07.136-.193.117-3.665-.584-105.49-2.273-105.49-2.273M330.347 103.34s1.344-1.375 1.553-1.63a.318.318 0 0 1 .288-.1c.571.076 3.695.034 4.196-.06.106-.019.21.048.262.148.092.18.364.66.441.782.028.045.082.08.15.09 2.42.365 85.697.655 87.564.344a.946.946 0 0 1 .151 0c4.17.007 7.508-.745 11.05-.645.057-.009.11.061.162.172l-.072 2.086c-.003.094-.066.146-.184.127-3.481-.554-105.56-1.315-105.56-1.315M330.319 101.155s1.326-1.366 1.547-1.636a.317.317 0 0 1 .285-.11c.541.072 3.665.001 4.197-.097.113-.02.22.04.268.135.087.17.362.652.444.782.03.048.083.085.147.095 2.293.345 85.632-.12 87.616-.451a.934.934 0 0 1 .151-.001c4.17-.03 7.51-.812 11.051-.746.06-.01.117.056.173.16l-.072 2.087c-.004.1-.064.157-.175.139-3.299-.525-105.632-.357-105.632-.357M330.29 98.97s1.308-1.357 1.542-1.643a.318.318 0 0 1 .282-.118c.51.067 3.635-.032 4.199-.136a.252.252 0 0 1 .273.124c.083.16.36.643.446.781.032.05.085.09.145.099 2.166.326 85.568-.896 87.668-1.245a.928.928 0 0 1 .151-.003c4.171-.068 7.51-.879 11.052-.846.063-.01.123.05.183.148l-.072 2.089c-.004.106-.06.167-.166.15-3.115-.496-105.702.6-105.702.6M330.262 96.785s1.289-1.348 1.536-1.65c.074-.09.18-.14.279-.127.48.063 3.606-.064 4.2-.174.126-.023.237.028.28.113.077.15.357.634.448.78a.214.214 0 0 0 .142.103c2.039.307 85.503-1.67 87.72-2.04a.928.928 0 0 1 .152-.003c4.17-.106 7.51-.946 11.052-.947.066-.01.13.046.193.136l-.072 2.09c-.004.112-.057.177-.157.162-2.931-.467-105.773 1.557-105.773 1.557M330.234 94.6s1.27-1.34 1.53-1.657c.078-.094.184-.148.275-.136.451.06 3.577-.096 4.203-.212.133-.025.245.022.285.101.073.142.354.627.45.78.036.056.087.099.14.107 1.912.287 85.439-2.445 87.772-2.834a.934.934 0 0 1 .152-.005c4.171-.142 7.512-1.012 11.052-1.047.07-.011.138.04.205.124-.01.29-.06 1.707-.072 2.092-.005.118-.055.187-.148.172-2.749-.438-105.844 2.516-105.844 2.516M330.206 92.416s1.251-1.331 1.525-1.665c.081-.099.186-.157.271-.145.421.055 3.547-.128 4.205-.25.139-.026.253.016.29.09.069.132.352.618.453.78.037.058.088.102.138.11 1.783.268 85.373-3.22 87.823-3.628a.946.946 0 0 1 .152-.007c4.172-.18 7.513-1.078 11.053-1.147.073-.012.145.035.215.112l-.072 2.093c-.004.124-.052.198-.139.184-2.565-.409-105.914 3.473-105.914 3.473M330.177 90.231s1.233-1.322 1.52-1.672c.085-.104.189-.165.268-.154.39.051 3.518-.16 4.206-.288.146-.027.262.01.297.079.063.123.35.61.455.778.039.062.089.108.135.115 1.656.249 85.309-3.995 87.875-4.423a.965.965 0 0 1 .152-.007c4.172-.217 7.514-1.145 11.053-1.248.077-.012.152.03.227.1l-.073 2.095c-.004.13-.049.208-.13.195-2.381-.38-105.985 4.43-105.985 4.43M330.149 88.047s1.215-1.314 1.514-1.68c.09-.108.192-.173.265-.163.36.047 3.488-.193 4.208-.326.152-.028.27.004.303.067.058.114.346.602.457.778.04.065.09.112.132.119 1.529.23 85.244-4.77 87.927-5.217a.992.992 0 0 1 .152-.009c4.173-.254 7.515-1.212 11.054-1.348.08-.013.159.025.237.089l-.072 2.095c-.005.136-.047.218-.121.207-2.199-.35-106.056 5.388-106.056 5.388M330.12 85.862s1.197-1.305 1.51-1.686c.093-.114.193-.182.26-.173.331.043 3.46-.225 4.21-.364.16-.03.28-.002.31.056.052.104.343.593.458.778.042.067.091.116.13.122 1.402.21 85.18-5.545 87.98-6.011a1.03 1.03 0 0 1 .152-.01c4.173-.292 7.515-1.279 11.053-1.45.084-.012.167.02.248.078l-.072 2.097c-.005.141-.043.228-.112.217-2.015-.32-106.126 6.346-106.126 6.346M330.092 83.677s1.178-1.296 1.504-1.693c.097-.118.196-.19.258-.182.3.04 3.429-.257 4.211-.402.166-.03.287-.008.315.045.048.094.34.585.46.777.045.07.093.12.129.126 1.274.191 85.114-6.32 88.03-6.805.087-.01.139-.014.153-.012 4.173-.329 7.516-1.345 11.054-1.55a.393.393 0 0 1 .259.066l-.073 2.098c-.005.148-.04.239-.102.23-1.832-.293-106.198 7.302-106.198 7.302M330.064 81.493s1.16-1.288 1.498-1.701c.1-.123.2-.198.254-.191.271.036 3.4-.29 4.214-.44.172-.032.296-.014.32.033.044.085.338.577.463.777.046.073.094.125.126.13 1.146.172 85.05-7.094 88.083-7.6.088-.01.14-.015.152-.013 4.174-.366 7.517-1.411 11.055-1.65.09-.013.18.01.27.054l-.073 2.1c-.006.153-.038.249-.094.24-1.649-.263-106.268 8.26-106.268 8.26M330.036 79.308s1.14-1.28 1.492-1.708c.105-.127.202-.206.251-.2.24.032 3.37-.322 4.215-.478.18-.033.305-.02.326.022.04.076.336.568.466.776.048.075.095.13.123.134 1.02.153 84.985-7.87 88.135-8.394.09-.011.14-.016.152-.015 4.174-.403 7.519-1.477 11.055-1.75a.536.536 0 0 1 .28.042l-.072 2.101c-.006.16-.035.26-.084.252-1.466-.234-106.34 9.218-106.34 9.218M330.007 77.123s1.123-1.27 1.487-1.715c.109-.132.205-.215.248-.209.21.028 3.34-.354 4.217-.516.186-.034.313-.026.332.01.034.067.333.56.468.776.049.078.095.134.12.138.892.134 84.92-8.644 88.187-9.188.091-.012.143-.018.153-.016 4.174-.44 7.519-1.545 11.055-1.85a.644.644 0 0 1 .291.03l-.073 2.102c-.005.165-.032.27-.075.262-1.283-.204-106.41 10.176-106.41 10.176M329.979 74.939s1.104-1.262 1.482-1.723c.112-.137.207-.223.244-.218.18.024 3.31-.386 4.219-.554.192-.035.321-.032.337 0 .03.056.33.551.47.774.051.081.097.138.118.142.765.115 84.856-9.419 88.24-9.982.092-.013.143-.019.152-.018 4.174-.477 7.52-1.61 11.055-1.95a.793.793 0 0 1 .302.018l-.072 2.103c-.006.171-.03.28-.067.274-1.099-.175-106.48 11.134-106.48 11.134M329.95 72.754s1.086-1.253 1.477-1.73c.116-.141.21-.23.24-.227.151.02 3.282-.418 4.221-.592.199-.037.33-.038.344-.012.024.047.328.544.472.774.053.084.098.143.116.146.637.095 84.79-10.194 88.29-10.777.094-.013.146-.02.153-.018 4.175-.515 7.521-1.678 11.056-2.051.105-.016.209-.01.313.006l-.073 2.105c-.006.177-.026.29-.057.285-.916-.146-106.552 12.091-106.552 12.091M329.922 70.57s1.067-1.245 1.471-1.737c.12-.147.213-.24.237-.237.12.016 3.252-.45 4.223-.63.205-.038.338-.044.35-.023.019.038.324.535.474.773.054.087.099.147.113.15.51.076 84.726-10.969 88.343-11.571.095-.014.146-.02.152-.02 4.176-.552 7.522-1.744 11.056-2.151.109-.017.216-.016.324-.006l-.073 2.106c-.006.183-.023.3-.048.297-.733-.117-106.622 13.048-106.622 13.048M329.894 68.385s1.048-1.236 1.465-1.744c.124-.151.216-.248.234-.246.09.012 3.223-.483 4.224-.668.213-.039.347-.05.356-.035.014.029.322.527.476.773.057.09.1.152.111.154.382.057 84.662-11.744 88.395-12.365.096-.015.148-.022.152-.022 4.176-.59 7.523-1.81 11.057-2.251.112-.017.223-.021.335-.018l-.073 2.108c-.007.189-.02.31-.04.307-.549-.087-106.692 14.007-106.692 14.007M329.865 66.2s1.03-1.227 1.46-1.751c.128-.156.219-.256.231-.255.06.008 3.193-.515 4.226-.706.219-.04.356-.056.361-.046.01.019.32.519.479.772.058.093.101.156.108.157.255.039 84.597-12.517 88.447-13.159.098-.015.15-.023.153-.022 4.176-.627 7.523-1.878 11.056-2.352a2.83 2.83 0 0 1 .346-.03l-.073 2.11c-.007.194-.017.32-.03.318-.366-.058-106.764 14.964-106.764 14.964M329.837 64.015s1.012-1.218 1.455-1.758c.132-.16.22-.264.227-.264.03.004 3.163-.547 4.228-.744a3.06 3.06 0 0 1 .366-.057c.005.01.318.51.482.771.06.096.102.16.106.161.127.02 84.531-13.292 88.498-13.953l.153-.024c4.176-.664 7.525-1.944 11.057-2.452.119-.018.238-.031.357-.042-.001.02-.05 1.456-.074 2.111-.007.2-.014.33-.02.33-.184-.03-106.835 15.921-106.835 15.921" style="fill:#93a4b2;fill-opacity:1;stroke:none;stroke-width:.704;stroke-linejoin:round;stroke-miterlimit:4;stroke-opacity:1" transform="matrix(2.50742 0 0 2.48918 -702.471 -157.004)"/></g></g><path d="M398.08 252.417c-.414-4.14-14.709-9.85-19.28-10.516-97.715-14.227-179.454-29.29-262.022-35.053l281.301 45.569z" style="opacity:1;fill:#a28476;fill-opacity:1;stroke:none;stroke-width:.704;stroke-linejoin:round;stroke-miterlimit:4;stroke-dasharray:none;stroke-opacity:1;display:inline"/><path d="m121.429-5.425 2.45 194.773 267.455 45.325" style="opacity:1;fill:none;fill-opacity:1;stroke:#775219;stroke-width:1.25455;stroke-linejoin:round;stroke-miterlimit:4;stroke-dasharray:none;stroke-opacity:1;display:inline"/><path d="m408.595 13.18-2.872 231.35c-5.96-3.025-5.006-14.976-5.987-24.537-1.766-43.157 5.552-142.644 8.86-206.814z" style="opacity:1;fill:#7d6154;fill-opacity:1;stroke:none;stroke-width:.704;stroke-linejoin:round;stroke-miterlimit:4;stroke-dasharray:none;stroke-opacity:1;display:inline"/><path d="m110.419-6.857 2.945 209.443c3.206-2.74 2.618-13.558 3.091-22.214.696-39.07-2.356-155.678-6.036-187.229z" style="opacity:1;fill:#a48577;fill-opacity:1;stroke:none;stroke-width:.704;stroke-linejoin:round;stroke-miterlimit:4;stroke-dasharray:none;stroke-opacity:1;display:inline"/><path d="m17.638 459.617 3.325-9.973 41.22-19.28 25.265 25.928-2.66 4.654-67.15-1.33z" style="fill:#14120f;fill-opacity:1;fill-rule:evenodd;stroke:none;stroke-width:1px;stroke-linecap:butt;stroke-linejoin:miter;stroke-opacity:1;display:inline"/><path d="m-4.714 247.716 96.078-12.826 1.753 11.393-3.505 5.258 3.505 169.131-96.078 29.16-1.753-202.116z" style="fill:#503f2a;fill-opacity:1;fill-rule:evenodd;stroke:#816a4d;stroke-width:2.48918px;stroke-linecap:butt;stroke-linejoin:miter;stroke-opacity:1;display:inline"/><path d="m107.997 423.147.77-175.662-15.408 3.082.77 174.12" style="opacity:1;fill:none;fill-opacity:1;stroke:#000;stroke-width:2.49914;stroke-linejoin:round;stroke-miterlimit:4;stroke-dasharray:none;stroke-opacity:1;display:inline"/><path d="m5.62 268.319 72.023-10.898v4.304l-66.468 9.564-5.555-2.97z" style="fill:#342a1a;fill-opacity:1;fill-rule:evenodd;stroke:none;stroke-width:1px;stroke-linecap:butt;stroke-linejoin:miter;stroke-opacity:1;display:inline"/><path d="M-3.24 267.731c5.043 9.709 19.061 18.581 25.097 24.403 4.806 4.637.373 26.16 6.664 30.258 9.526 6.205 30.678 17.577 45.763 2.35l4.436 96.864L-.635 445.49-3.24 267.73z" style="opacity:1;fill:#3c311f;fill-opacity:1;stroke:none;stroke-width:2.9;stroke-linejoin:miter;stroke-miterlimit:4;stroke-dasharray:none;stroke-opacity:1;display:inline"/><path d="M-3.75 427.19c27.29-5.976 30.383-3.125 62.643-12.434l-1.913 3.348-62.643 18.171 1.912-9.086z" style="opacity:.908046;fill:#211a11;fill-opacity:1;fill-rule:evenodd;stroke:none;stroke-width:1px;stroke-linecap:butt;stroke-linejoin:miter;stroke-opacity:1;display:inline"/><path d="m-5.284 343.21 13.01-4.486 1.913 14.346c8.892-8.381 18.36-6.734 25.68-4.32 6.48 2.137.198 18.768 2.39 23.6 2.595 5.715 15.678 3.09 28.835 11.802l-8.608 9.564c-10.643 2.992-21.348 10.828-41.603 18.65l-8.071 3.204 47.09-10.317 2.015 3.017-65.421 18.441 2.77-83.501z" style="fill:#2a2215;fill-opacity:.756579;fill-rule:evenodd;stroke:none;stroke-width:1px;stroke-linecap:butt;stroke-linejoin:miter;stroke-opacity:1;display:inline"/><path d="M64.63 435.797 14.9 455.88l-28.214.478 3.348-12.433 74.598-21.519v13.39z" style="fill:#000;fill-opacity:1;fill-rule:evenodd;stroke:none;stroke-width:1px;stroke-linecap:butt;stroke-linejoin:miter;stroke-opacity:1;display:inline"/><g style="fill:#64573b;fill-opacity:.888158;display:inline"><path d="m306.605 473.156-.192-2.69-27.088 7.877.385.768 22.284-5.763-23.053 6.724.384 1.152 27.28-8.068zM279.146 473.911l25.922-6.903v.961l-26.498 7.287.576-1.345zM278.749 473.116l24.974-6.684.113-1.576-25.498 7.042.411 1.218z" style="fill:#64573b;fill-opacity:.888158;fill-rule:evenodd;stroke:none;stroke-width:1px;stroke-linecap:butt;stroke-linejoin:miter;stroke-opacity:1" transform="translate(-701.433 -754.407) scale(2.48918)"/></g><path d="m13.271 398.227-1.913 4.782 47.403-11.833.38-3.825-45.87 10.876z" style="fill:#55432e;fill-opacity:.703947;fill-rule:evenodd;stroke:none;stroke-width:1px;stroke-linecap:butt;stroke-linejoin:miter;stroke-opacity:1;display:inline"/><g style="display:inline"><path d="m387.609 427.958-15.825 33.17" style="opacity:1;fill:none;fill-opacity:1;stroke:#000;stroke-width:1.004;stroke-linejoin:round;stroke-miterlimit:4;stroke-dasharray:none;stroke-opacity:1;display:inline" transform="translate(-701.433 -754.407) scale(2.48918)"/><path d="m325.489 434.689 61.284 27.856M318.989 404.665l-17.702 2.474c-2.942 1.582-1.875 5.129 1.238 5.881 1.08 0 1.331-.402 2.167-1.238l.94-1.475M301.966 413.588l1.077 71.477M387.685 419.024l-62.506-16.216M325.798 408.07l61.904 20.119" style="opacity:1;fill:none;fill-opacity:1;stroke:#000;stroke-width:1.004;stroke-linejoin:round;stroke-miterlimit:4;stroke-dasharray:none;stroke-opacity:1" transform="translate(-701.433 -754.407) scale(2.48918)"/></g><path d="m81.252 253.042-33.183 4.74 5.794.352 25.282-3.512 2.107-1.58z" style="fill:#7e7e70;fill-opacity:1;fill-rule:evenodd;stroke:none;stroke-width:1px;stroke-linecap:butt;stroke-linejoin:miter;stroke-opacity:1;display:inline"/><path d="m80.261 366.134-24.528 5.134-.138 13.621-2.756 4.078-.414 26.326 2.845 2.606.185 7.864-3.422 3.082-.153 6.161 26.301 18.851 168.497.878-.77-38.522-52.391 19.261-113.256-69.34z" style="fill:#100d0c;fill-opacity:1;fill-rule:evenodd;stroke:none;stroke-width:1px;stroke-linecap:butt;stroke-linejoin:miter;stroke-opacity:1;display:inline"/><path d="m262.53 396.19-114.358-51.932-1.462.497 115.644 52.49.176-1.054z" style="fill:#757568;fill-opacity:1;fill-rule:evenodd;stroke:none;stroke-width:1px;stroke-linecap:butt;stroke-linejoin:miter;stroke-opacity:1;display:inline"/><path d="m51.053 348.813 61.343-12.268 148.976 69.23-69.457 29.263-140.862-86.225z" style="opacity:1;fill:#28241d;fill-opacity:1;stroke:none;stroke-width:1;stroke-linejoin:miter;stroke-miterlimit:4;stroke-dasharray:none;stroke-opacity:1;display:inline"/><path d="M105.205 350.352c17.527 11.976 25.07 6.585 37.995 18.562 1.437 2.263 3.563 6.637 6.745 9.3 5.866 4.912 25.08 3.22 57.055 20.55 9.756 5.55 23.529 10.184 31.823 15.735l21.673-7.848-151.605-70.106-3.686 13.807z" style="fill:#825a44;fill-opacity:1;fill-rule:evenodd;stroke:none;stroke-width:1px;stroke-linecap:butt;stroke-linejoin:miter;stroke-opacity:1;display:inline"/><path d="m57.769 349.56.237 4.274 76.941 48.682 9.024-16.386-6.649-11.16-79.553-25.41z" style="fill:#181511;fill-opacity:1;fill-rule:evenodd;stroke:none;stroke-width:1px;stroke-linecap:butt;stroke-linejoin:miter;stroke-opacity:1;display:inline"/><path d="m74.671 285.113-.729 11.138-16.024 4.3.831 49.415 12.51 7.518 29.804 15.584c12.049 3.702 24.204 6.545 37.319 1.716l.764-5.288c.166-1.4-.032-3.163-.946-5.643 8.31-4.705 13.533-14.002 13.755-23.383-4.996-5.01-11.375-7.257-18.533-7.943l-.28-20.074-58.471-27.34z" style="fill:#15120f;fill-opacity:1;fill-rule:evenodd;stroke:none;stroke-width:1px;stroke-linecap:butt;stroke-linejoin:miter;stroke-opacity:1;display:inline"/><path d="m153.114 258.208 112.206 29.297-2.02.773-116.434-30.07h6.248z" style="fill:#949ca0;fill-opacity:1;fill-rule:evenodd;stroke:none;stroke-width:1px;stroke-linecap:butt;stroke-linejoin:miter;stroke-opacity:1;display:inline"/><path d="m48.424 273.449 142.842 63.096 71.859-21.909-153.358-49.95-61.343 8.763z" style="opacity:1;fill:#8d614a;fill-opacity:1;stroke:none;stroke-width:1;stroke-linejoin:miter;stroke-miterlimit:4;stroke-dasharray:none;stroke-opacity:1;display:inline"/><path d="m145.697 276.954-1.753 15.774-12.902-2.206c2.613 6.798-1.717 13.263-2.304 18.694l57.434 25.702c4.002-12.047-9.398-13.745-3.67-20.282l10.517-12.268c-9.043-5.856-9.029-10.458-23.661-17.527l-23.661-7.887z" style="opacity:.774725;fill:#def7fb;fill-opacity:1;stroke:none;stroke-width:1;stroke-linejoin:miter;stroke-miterlimit:4;stroke-dasharray:none;stroke-opacity:1;display:inline"/><path d="m126.737 308.946 12.911 5.909c5.414-20.813 25.542-21.33 52.193-10.723l-2.297-5.143c-1.747-3.168-7.565-8.678-15.976-13.568l-19.914-5.47-23.635 8.315c2.478 7.999-1.837 14.512-3.282 20.68z" style="opacity:1;fill:#a0a0ab;fill-opacity:1;fill-rule:evenodd;stroke:none;stroke-width:1px;stroke-linecap:butt;stroke-linejoin:miter;stroke-opacity:1;display:inline"/><path d="M169.893 409.037c-1.22.61-5.798 3.052-5.798 3.052l-5.189 4.273 11.598 7.02c5.871.61 10.878 2.43 18.922 0 11.589 2.829 17.786-1.658 22.89-7.63.572-3.154-1.482-6.308-3.663-9.462l-38.76 2.747z" style="fill:#181511;fill-opacity:1;fill-rule:evenodd;stroke:none;stroke-width:1px;stroke-linecap:butt;stroke-linejoin:miter;stroke-opacity:1;display:inline"/><path d="M156.536 379.356c4.767-16.268 56.001-26.352 62.452-4.88 1.173 3.906-5.038 13.064-10.833 17.853l2.086 3.792c2.722 2.592.134 5.71-.479 9.527-14.358 13.134-37.16 9.246-40.129 2.86.512-5.315-2.923-4.585-3.548-9.04.021-2.287 1.29-3.977 2.778-4.828-7.145-4.46-13.43-11.524-12.327-15.284z" style="fill:#15120f;fill-opacity:1;fill-rule:evenodd;stroke:none;stroke-width:1px;stroke-linecap:butt;stroke-linejoin:miter;stroke-opacity:1;display:inline"/><path d="M49.956 348.03v5.258l143.053 89.503 67.795-29.824-2.629-7.011-66.919 28.948-141.3-86.873zM48.627 273.717l-.203 5.866 144.595 64.849 70.106-23.661-.915-6.368-70.944 22.142-142.64-62.828z" style="opacity:1;fill:#181511;fill-opacity:1;stroke:none;stroke-width:1;stroke-linejoin:miter;stroke-miterlimit:4;stroke-dasharray:none;stroke-opacity:1;display:inline"/><path d="m262.614 309.751-111.486-36.343-2.282.703 113.593 36.693.175-1.053z" style="fill:#949ca0;fill-opacity:1;fill-rule:evenodd;stroke:none;stroke-width:1px;stroke-linecap:butt;stroke-linejoin:miter;stroke-opacity:1;display:inline"/><path d="M175.18 306.637c-4.057 1.62-6.97 8.209-3.837 10.822 5.59 4.663 24.412 8.639 38.098 6.284 6.418-1.104 12.491-4.6 14.708-8.824l-20.144-9.115-28.826.833z" style="opacity:1;fill:#000;fill-opacity:.382979;stroke:none;stroke-width:.6;stroke-linecap:round;stroke-linejoin:miter;stroke-miterlimit:4;stroke-dasharray:none;stroke-opacity:1;display:inline"/><path d="M192.263 290.792c1.03-23.024-14.105-39.982-14.188-56.416-.05-9.874 4.64-16.94 12.295-18.526-.647-9.58-2.124-13.64-8.573-18.424-.419-4.886 6.52-9.38 11.733-10.213l.134-26.942 11.113.892-.206 25.836c6.574.466 10.585 5.229 12.158 9.33-4.997 4.914-8.922 10.454-8.746 19.423 7.027 1.641 14.488 8.741 14.445 18.039-.09 19.677-17.062 34.676-15.485 56.872.72 10.113 23.275 11.712 19.231 23.355-13.798 10.143-39.321 10.142-53.304.067-3.557-11.111 19.035-15.287 19.393-23.293z" style="fill:#161410;fill-opacity:1;fill-rule:evenodd;stroke:none;stroke-width:1px;stroke-linecap:butt;stroke-linejoin:miter;stroke-opacity:1;display:inline"/><g style="fill:#2a2b24;fill-opacity:1;display:inline"><path d="m600.931 324.906.016-2.936 1.318-.038.012 2.987-1.346-.013z" style="opacity:1;fill:#2a2b24;fill-opacity:1;stroke:none;stroke-width:2.9;stroke-linejoin:miter;stroke-miterlimit:4;stroke-dasharray:none;stroke-opacity:1" transform="translate(-1298.45 -752.866) scale(2.48918)"/><path d="M602.67 321.774a1.214 1.214 0 1 1-2.428 0 1.214 1.214 0 1 1 2.428 0z" style="opacity:1;fill:#2a2b24;fill-opacity:1;stroke:none;stroke-width:2.9;stroke-linejoin:miter;stroke-miterlimit:4;stroke-dasharray:none;stroke-opacity:1" transform="translate(-1298.06 -753.84) scale(2.48918)"/></g><path d="m-7.576 247.867 92.29-8.607-3.346 4.782-93.248 10.52 4.304-6.695z" style="fill:#2a2215;fill-opacity:1;fill-rule:evenodd;stroke:none;stroke-width:1px;stroke-linecap:butt;stroke-linejoin:miter;stroke-opacity:1;display:inline"/><path d="m-6.433 243.519 96.93-9.692-92.43-17.276-4.5 26.968z" style="opacity:1;fill:#6f583b;fill-opacity:1;stroke:none;stroke-width:.704;stroke-linejoin:round;stroke-miterlimit:4;stroke-dasharray:none;stroke-opacity:1;display:inline"/><path d="m78.02 241.173-88.944 9.085-1.912-2.869 61.686-6.695-62.164 4.782-2.391-1.912 97.073-8.608-3.348 6.217z" style="fill:#9b845d;fill-opacity:1;fill-rule:evenodd;stroke:none;stroke-width:1px;stroke-linecap:butt;stroke-linejoin:miter;stroke-opacity:1;display:inline"/><path d="M178.921 367.739c12.626-2.726 25.159-7.35 38.532 5.156-2.658 6.486-12.788 10.12-27.708 11.929l2.469-2.984c4.907-.84 11.235-2.817 13.81-4.42 6.337-2.543 4.577-5.149-2.418-4.887-1-1.714-2.543-3.891-1.904-5.692-5.913-1.418-14.56-.042-22.781.898z" style="fill:#24231e;fill-opacity:1;fill-rule:evenodd;stroke:none;stroke-width:1px;stroke-linecap:butt;stroke-linejoin:miter;stroke-opacity:1;display:inline"/><path d="m99.267 267.82-22.639-9.308L80.268 198l18.911-1.707 3.309 3.47-3.221 68.057z" style="opacity:1;fill:#637b8d;fill-opacity:1;fill-rule:evenodd;stroke:#718798;stroke-width:1.99135;stroke-linecap:butt;stroke-linejoin:miter;stroke-miterlimit:4;stroke-dasharray:none;stroke-opacity:1;display:inline"/><path d="M75.711 257.691c3.772-6.115 16.207-7.769 27.388-5.857l-.953 14.577-26.435-8.72z" style="opacity:1;fill:#bfcdd2;fill-opacity:1;stroke:none;stroke-width:2.9;stroke-linejoin:miter;stroke-miterlimit:4;stroke-dasharray:none;stroke-opacity:1;display:inline"/><path d="M83.59 202.862c-.197 5.93-1.118 11.444 1.548 13.509l17.622 6.796-.392-9.823c-4.379.03-8.731-.144-13.735-2.311-1.634-.708-3.362-4.34-5.043-8.17z" style="opacity:1;fill:#bfcdd2;fill-opacity:1;fill-rule:evenodd;stroke:none;stroke-width:1px;stroke-linecap:butt;stroke-linejoin:miter;stroke-opacity:1;display:inline"/><path d="M76.704 270.06c-8.134 3.859-6.206 7.6-2.206 9.928 11.106 6.462 27.363 13.262 40.446 16.546 11.899 3.176 30.512.304 35.552-10.845l-47.318-15.997-26.474.368z" style="fill:#000;fill-opacity:.375886;fill-rule:evenodd;stroke:none;stroke-width:1px;stroke-linecap:butt;stroke-linejoin:miter;stroke-opacity:1;display:inline"/><path d="m74.499 269.423.935-11.902 24.706 8.34 2.63-61.712 25.08-6.034 18.615 6.987 6.982 75.11c-.084 12.696-20.297 16.632-32.452 13.686l-45.19-18.1-1.306-6.375z" style="opacity:1;fill:#53514e;fill-opacity:1;stroke:none;stroke-width:2.9;stroke-linejoin:miter;stroke-miterlimit:4;stroke-dasharray:none;stroke-opacity:1;display:inline"/><path d="m124.997 210.387.168 47.711-5.292 6.117.173 21.181-28.025-7.658 5.307 4.534 21.947 7.558c13.982 4.814 33.675-1.202 34.156-10.894l-11.573-74.81-16.86 6.26z" style="opacity:1;fill:#a3999a;fill-opacity:1;stroke:none;stroke-width:.6;stroke-linecap:round;stroke-linejoin:miter;stroke-miterlimit:4;stroke-dasharray:none;stroke-opacity:1;display:inline"/><path d="m28.852 232.363 9.43.891 5.612-3.05 2.945.105 3.23-1.405.285-19.913-5.314-.919-.582-14.78-8.083.06-8.253 2.099.73 36.912z" style="fill:#1d1b0f;fill-opacity:1;fill-rule:evenodd;stroke:none;stroke-width:1px;stroke-linecap:butt;stroke-linejoin:miter;stroke-opacity:1;display:inline"/><path d="m27.773 194.853 7.928-1.51 9.376.062-5.952 1.6-.005 34.915-2.409.693-.674-34.91-8.264-.85z" style="opacity:1;fill:#4b493b;fill-opacity:1;stroke:none;stroke-width:2.9;stroke-linejoin:miter;stroke-miterlimit:4;stroke-dasharray:none;stroke-opacity:1;display:inline"/><path d="M-4.26 228.05c8.364-1.872 27.21-3.53 35.871.38-6.47 6.392-16.313 8.45-34.757 8.767l-1.114-9.148z" style="fill:#808384;fill-opacity:1;fill-rule:evenodd;stroke:none;stroke-width:1px;stroke-linecap:butt;stroke-linejoin:miter;stroke-opacity:1;display:inline"/><path d="m6.028 231.609-10.128-.923-.174-18.015 12.31-1.75 11.367 1.094-2.477 13.805-10.898 5.789z" style="fill:#989075;fill-opacity:1;fill-rule:evenodd;stroke:none;stroke-width:1px;stroke-linecap:butt;stroke-linejoin:miter;stroke-opacity:1;display:inline"/><path d="m21.32 230.78-1.413-18.742-12.053-1.108 6.914 1.91-1.575 6.187-3.181-6.354-6.008.953.783 18.364 16.534-1.21z" style="fill:#c2b987;fill-opacity:1;fill-rule:evenodd;stroke:none;stroke-width:1px;stroke-linecap:butt;stroke-linejoin:miter;stroke-opacity:1;display:inline"/><path d="M192.234 284.985c-1.023 1.124-.688 2.061.121 2.94-.61.436-.582 2.007-.182 2.59l14.876-.14c.82-.383.506-2.191-.06-2.87.518-.505.654-1.848 0-2.66l-14.755.14z" style="fill:#161410;fill-opacity:1;fill-rule:evenodd;stroke:none;stroke-width:1px;stroke-linecap:butt;stroke-linejoin:miter;stroke-opacity:1;display:inline"/><path d="m182.059 194.87 34.058-.172c1.003-.005 1.81 1.409.604 1.983l-34.92.69c-1.156-.539-.985-2.495.258-2.5z" style="fill:#161410;fill-opacity:1;stroke:none;stroke-width:2.9;stroke-linejoin:miter;stroke-miterlimit:4;stroke-opacity:1;display:inline"/><path d="m213.202 192.167-9.101 1.463c-1.192-1.734-2.655-4.226-2.113-5.526-2.113.279-5.201.942-7.802 0-1.387 2.936.112 4.802-.65 6.989l-9.752-1.3c1.777-3.054 4.95-5.232 10.727-6.502 2.446.873 6.136-.003 8.777-.325 3.707.8 9.105 2.421 9.914 5.201z" style="fill:#4d5045;fill-opacity:1;fill-rule:evenodd;stroke:none;stroke-width:1px;stroke-linecap:butt;stroke-linejoin:miter;stroke-opacity:1;display:inline"/><path d="m178.42 234.849 15.373.025 28.76.047c1.28.002.934 3.823-.438 3.825l-43.593.055c-1.166.002-1.427-3.954-.101-3.952z" style="fill:#161410;fill-opacity:1;stroke:none;stroke-width:2.9;stroke-linejoin:miter;stroke-miterlimit:4;stroke-opacity:1;display:inline"/><path d="m203.102 173.064.038 14.268c4.568-.122 7.887 2.669 9.938 4.726-2 .608-5.73 1.015-8.245.83l1.632 1.375c2.686-.237 5.258-.588 7.512-1.256l.634 1.2c-2.026.941-5.906 1.574-10.522 2.085l1.364 1.425c4.823-.569 8.134-1.138 10.798-1.707l-5.49 6.357-5.55 1.018-1.464 11.514c8.268 2.632 9.732 6.962 5.066 8.28.193 2.21 1.612 7.925 2.327 10.586 2.278-.028 4.595-.78 6.919-1.6.595-.21.457.584-.103.881-2.963 1.577-9.504 3.375-14.494 3.818-.49.043-.6 1.477 0 1.463 4.78-.114 9.299-1.352 12.327-2.218-2.716 1.255-8.832 3.359-14.006 3.535-.43.34-.43 1.05 0 1.415 7.595-.31 16.138-1.601 21.53-3.562.082-.808.371-2.555-.899-2.581.017-.333.027-.698.028-1.118.033-9.298-7.442-16.406-14.468-18.047-.176-8.969 3.586-14.049 8.583-18.963 1.662-.318.799-2.44-.657-2.286-1.928-3.654-5.616-7.125-11.349-7.532l.156-13.846-1.605-.06z" style="opacity:1;fill:#d7ddea;fill-opacity:1;stroke:none;stroke-width:2.9;stroke-linejoin:miter;stroke-miterlimit:4;stroke-dasharray:none;stroke-opacity:1;display:inline"/><path d="M129.923 160.88c4.25 16.089 137.356 18.64 141.089 2.766l-7.377-106.969c-5.983-7.72-118.52-7.892-126.294 1.046l-7.418 103.157z" style="opacity:1;fill:#998f82;fill-opacity:1;stroke:none;stroke-width:1;stroke-linejoin:miter;stroke-miterlimit:4;stroke-dasharray:none;stroke-opacity:1;display:inline"/><path d="M239.427 55.035c.452 3.953-5.297 9.523-6.353 15.335-1.07 5.895 1.298 10.582 2.63 16.448 1.223 5.385 1.063 11.92 0 16.6-1.173 5.164-1.827 9.791-4.189 14.755-4.471 9.401-8.919 15.18-13.017 24.737-3.657 8.526-1.606 19.743 2.122 27.775 25.345-.35 43.056-1.77 50.265-7.92l-7.031-104.972c-3.385-2.565-13.193-3.464-24.427-2.758z" style="opacity:1;fill:#e0e6ed;fill-opacity:1;stroke:none;stroke-width:1;stroke-linejoin:miter;stroke-miterlimit:4;stroke-dasharray:none;stroke-opacity:1;display:inline"/><path d="M185.816 236.424c-.057.197.04.46.06.69 5.532 1.155 11.734 1.84 18.18 1.206l-.121-.053-.427-1.01.208-.346c-6.156.244-12.118.108-17.9-.487z" style="opacity:1;fill:#575f53;fill-opacity:1;stroke:none;stroke-width:2.9;stroke-linejoin:miter;stroke-miterlimit:4;stroke-dasharray:none;stroke-opacity:1;display:inline"/><path d="M205.573 239.023c-9.015 1.226-16.588.96-24.124-1.142l1.387 1.456c5.705 1.578 12.959 2.296 20.328 1.84l2.41-2.154zM204.117 200.807l2.467 1.97 2.084-1.922 5.201-1.836 1.138-.975c-9.93 2.861-20.248 3.094-31.044.325 2.284 1.171 5.142 3.288 6.559 6.627 1.341-.705 3.012-2.485 3.03-4.19h10.565zM183.46 219.434c-.713 6.473 9.281 7.85 17.285 7.74 8.426-.117 16.636-2.121 14.962-7.532-2.262-1.811-4.61-3.396-7.42-3.744 1.904 4.184-19.048 5.603-18.863.208-2.25.562-4.268 1.657-5.964 3.328z" style="opacity:1;fill:#4d5045;fill-opacity:1;stroke:none;stroke-width:2.9;stroke-linejoin:miter;stroke-miterlimit:4;stroke-dasharray:none;stroke-opacity:1;display:inline"/><path d="M173.634 308.208c-.681-.458-1.455 1.17-.788 1.601 14.458 9.366 42.917 7.51 53.63-.225.521-.377-.066-1.999-.715-1.567-11.697 7.774-38.813 9.135-52.127.191z" style="fill:#4d5045;fill-opacity:.557377;fill-rule:evenodd;stroke:none;stroke-width:1px;stroke-linecap:butt;stroke-linejoin:miter;stroke-opacity:1;display:inline"/><path d="M174.176 307.068s2.922 2.13 3.839 1.888c.95-.25 1.496-2.126 2.52-2.262 6.422-.853 25.606 2.278 31.961 5.251 3.578-2.423 7.278-4.943 10.208-7.151-4.806-3.993-12.662-6.729-15.664-12.417.343 3.485 1.614 5.857 3.056 8.023l-6.495-6.877c.108 1.975-.174 3.658-.955 4.967-2.642-2.1-10.442-1.428-9.399 4.237-5.113-1.874-5.113-2.543-2.014-9.263-4.497 5.166-14.278 9.177-17.057 13.604zM198.878 286.357c1.615.962 7.562.128 8.098-1.15-2.269.694-4.879 1.066-8.098 1.15z" style="fill:#4d5045;fill-opacity:1;fill-rule:evenodd;stroke:none;stroke-width:1px;stroke-linecap:butt;stroke-linejoin:miter;stroke-opacity:1;display:inline"/><g style="fill:#d7ddea;fill-opacity:1;display:inline"><path d="M603.665 421.308c3.051 3.675 4.09 3.095 4.855 4.821-.056.773-.535 1.493-1.306 2.177-3.045-1.626-3.933-1.593-4.587-2.177l-.08-.638c1.997-.32 2.235-1.719 1.085-2.342l.033-1.841zM599.815 425.259l.134.87c-2.993-.987-5.477-.642-5.425-1.339.03-.404.402-1.06 1.34-1.406.674.864 2.328 1.583 3.95 1.875zM603.632 429.478c.902.777 6.586-.264 6.998-1.54-1.785.653-4.415 1.329-6.998 1.54z" style="fill:#d7ddea;fill-opacity:1;fill-rule:evenodd;stroke:none;stroke-width:1px;stroke-linecap:butt;stroke-linejoin:miter;stroke-opacity:1" transform="translate(-1298.84 -754.407) scale(2.48918)"/><path d="M601.758 419.364c.649.387 3.037.051 3.253-.462-.911.279-1.96.428-3.253.462zM603.14 418.024c.177.307 1.316.044 1.428-.251-.355.12-.953.219-1.427.251z" style="fill:#d7ddea;fill-opacity:1;fill-rule:evenodd;stroke:none;stroke-width:1px;stroke-linecap:butt;stroke-linejoin:miter;stroke-opacity:1;display:inline" transform="translate(-1298.84 -754.407) scale(2.48918)"/></g><path d="M137.66 57.262c9.193-6.692 75.507-8.462 115.433-3.955l-32.864-.07c-31.471-1.206-72.12.54-82.769 6.327l.2-2.302z" style="opacity:1;fill:#746552;fill-opacity:1;stroke:none;stroke-width:2.9;stroke-linejoin:miter;stroke-miterlimit:4;stroke-dasharray:none;stroke-opacity:1;display:inline"/><path d="m131.11 157.805 6.935-97.076c6.711-3.977 30.186-5.893 45.841-5.778-1.984 2.2-6.531 4.763-8.86 6.549-3.855 3.73-6.99 8.068-9.63 12.712-1.271 2.542-3.713 4.833-5.393 6.934-3.323 4.234-5.63 8.42-7.32 13.483-1.736 3.92-2.467 8.178-3.467 12.327-.797 3.187-2.035 6.322-2.696 9.63-1.81 4.844-3.115 9.534-3.853 14.639-.87 3.482-2.222 6.58-3.081 10.016-2.803 5.745-5.022 10.399-8.475 16.564z" style="opacity:1;fill:#e0e2ed;fill-opacity:.349727;stroke:none;stroke-width:2.9;stroke-linejoin:miter;stroke-miterlimit:4;stroke-dasharray:none;stroke-opacity:1;display:inline"/><path d="M133.63 164.768c-1.036-.983-.864-1.89-.44-2.127.747-.417 1.724-.94 3.215-.25 15.866 7.324 44.427 9.067 81.766 9.037 4.683-.004 13.903.285 21.16.105.332.887.488 1.715-2.908 1.793-43.14 3.143-82.76.121-102.793-8.558z" style="fill:#746552;fill-opacity:.737705;fill-rule:evenodd;stroke:none;stroke-width:1px;stroke-linecap:butt;stroke-linejoin:miter;stroke-opacity:1;display:inline"/><path d="M135.398 210.831c.177 22.696 1.979 38.374 3.382 58.618-.19 4.14-2.582 8.438-5.034 9.356-3.616 1.353-11.709 1.495-16.568.294l1.707 2.731c6.19 1.721 13.921.816 20.625-.912l-.014 2.755c5.867-.425 11.053-3.461 13.769-9.101l-6.957-69.457-10.91 5.716z" style="opacity:1;fill:#e9ebee;fill-opacity:1;stroke:none;stroke-width:2.9;stroke-linejoin:miter;stroke-miterlimit:4;stroke-dasharray:none;stroke-opacity:1;display:inline"/><path d="M82.175 199.29c-10.493-3.034 10.73-6.72 22.338-4.654l21.827 3.885c2.59-.243 5.17-.283 6.947-.133 4.435.373 8.535 2.018 11.77 4.56 7.623 5.995-14.499 10.332-24.255 7.51L82.175 199.29z" style="opacity:1;fill:#f2f2f2;fill-opacity:1;stroke:none;stroke-width:2.9;stroke-linejoin:miter;stroke-miterlimit:4;stroke-dasharray:none;stroke-opacity:1;display:inline"/><path d="m108.934 201.85-6.05 1.86h.233l-16.288-4.653v-3.025l22.105 5.817z" style="fill:#6e6e6e;fill-opacity:.765027;fill-rule:evenodd;stroke:none;stroke-width:1px;stroke-linecap:butt;stroke-linejoin:miter;stroke-opacity:1;display:inline"/><path d="m129.123 199.633.94 5.026M132.52 199.933l.866 4.181M135.889 200.483l.474 1.813M126.092 200.842l.472 2.425" style="opacity:1;fill:#ececec;fill-opacity:1;stroke:#c3c3c3;stroke-width:1.49351;stroke-linecap:round;stroke-linejoin:miter;stroke-miterlimit:4;stroke-dasharray:none;stroke-opacity:1;display:inline"/><path d="M117.675 203.985c2.125 3.996 13.563 5.317 25.975 2.474l-4.133 1.424c-7.287 2.67-22.213.524-21.842-3.898z" style="opacity:1;fill:#8793b6;fill-opacity:1;stroke:none;stroke-width:.6;stroke-linecap:round;stroke-linejoin:miter;stroke-miterlimit:4;stroke-dasharray:none;stroke-opacity:1;display:inline"/><g style="display:inline"><path d="m386.835 464.242 1.04-45.27-8.279 2.971.678-.254-1.462 58.76" style="opacity:1;fill:none;fill-opacity:1;stroke:#000;stroke-width:1.004;stroke-linejoin:round;stroke-miterlimit:4;stroke-dasharray:none;stroke-opacity:1;display:inline" transform="translate(-701.433 -754.407) scale(2.48918)"/><path d="m359.845 437.92-.384 49.114M380.372 462.806l-20.743 8.514M380.453 424.28l-19.146 5.696c-1.217.362-3.231 2.309-3.261 4.387-.201 3.08 2.614 4.909 5.65 2.287l1.692-2.173" style="opacity:1;fill:none;fill-opacity:1;stroke:#000;stroke-width:1.004;stroke-linejoin:round;stroke-miterlimit:4;stroke-dasharray:none;stroke-opacity:1" transform="translate(-701.433 -754.407) scale(2.48918)"/></g><path d="M239.041 454.23c-.157-2.478 3.128-12.05 9.601-28.53 6.688-12.978 13.448-29.897 20.044-39.492 3.668-7.342 15.817-17.974 15.817-26.37 0-5.811 1.165-9.448 3.16-13.442l4.74-9.488c2.896-8.72 6.365-17.328 8.77-20.333 8.015-10.074 21.132-15.828 24.664-16.66 4.919-1.158 10.843-3.33 16.334-3.33 4.5 0 12.686 1.728 17.459 1.728 9.938-3.683 18.149-4.287 28.86-4.242 13.085-2.346 34.618 2.644 47.776 1.086 15.636-3.8 29.546-2.271 42.57 6.962v151.806l-239.795.304z" style="opacity:1;fill:#1c222a;fill-opacity:1;stroke:none;stroke-width:1;stroke-linejoin:miter;stroke-miterlimit:4;stroke-dasharray:none;stroke-opacity:1;display:inline"/><path d="M391.065 359.268h78.277V461.76h-78.277z" style="fill:#000;fill-opacity:1;stroke:none;stroke-width:.5;stroke-linecap:round;stroke-miterlimit:4;stroke-dasharray:none;stroke-opacity:1;display:inline"/><path d="M235.174 454.8c5.659-17.19 12.462-32.55 20.495-48.63-2.218-3.233 27.33-67.95 31.994-66.89-.537-4.293 7.362-18.769 10.971-20.682-.42-2.663 3.68-9.383 6.408-10.944 2.523-5.419 12.008-9.459 14.132-8.215 1.25-2.474 6.944-4.95 11.586-5.268 6.378-.435 25.545 2.63 29.097 3.113 4.648 17.321-9.331 39.765-20.574 48.243-6.317-4.377-6.73-15.677-7.214-16.754-.345-.768 1.773-11.643.527-12.277-.988-.502-1.241 4.33-2.76 6.226-1.276-7.91-5.322-19.119-5.544-19.146-1.052-.131-2.1 7.866-5.561 9.921-.925.549 2.086 4.821 1.426 8.418-1.123-1.872-5.128 1.215-6.073-.152-1.38.243-2.576 2.025-3.474 1.742.888 3.397 7.888 12.087 13.567 21.285-8.094-7.068-12.526-12.89-21.45-26.122.072 2.68 2.727 6.763 2.641 8.986-.052 1.358-2.71 3.795-3.12 8.128-.313 3.288-7.582-1.473-8.143.514-.486 1.72 2.137 5.413 2.312 7.966.108 1.582-8.24-1.33-9.223 2.224-.551 1.99 9.14 5.38 7.874 6.994-1.39 1.772-1.905 5.666-4.034 12.31-1.666 5.2-23.779 35.85-26.101 39.026-.971 1.328-4.958-.31-3.702.99 2.046 2.117 9.297 10.585 7.05 9.771-2.603-.943-8.792-6.542-7.969-4.71.348.774 4.016 3.6 7.83 6.693 4.526 3.67-7.2.216-7.558 1.647-1.363 5.457 2.261 9.65-.147 14.47-1.176 2.354-14.153 1.484-13.18 4.01.846 2.191 14.656 1.184 14.466 3.182-.337 3.53-8.773 5.415-10.684 13.19l-15.865.74z" style="opacity:.98;fill:#64768f;fill-opacity:1;stroke:none;stroke-width:1;stroke-linejoin:miter;stroke-miterlimit:4;stroke-dasharray:none;stroke-opacity:1;display:inline"/><path d="M330.722 294.16c-4.442.304-9.861 2.75-11.415 5.114l.135 1.008c-1.96 1.027-4.283 2.23-5.55 4.992l3.135 1.2 5.138-5.313c-.808 1.943-2.028 3.68-1.478 6.301-3.835 4.577-6.656 12.278-5.912 13.535 1.557-.126 2.614-7.537 6.866-12.855.49-2.595 1.277-4.488 2.489-6.362l3.923-5.012 1.218 2.702c5.944-2.214 15.086.092 22.92.602l3.422-3.422c-6.55-.966-19.523-2.856-24.891-2.49z" style="fill:#d2d9e1;fill-opacity:1;fill-rule:evenodd;stroke:none;stroke-width:1px;stroke-linecap:butt;stroke-linejoin:miter;stroke-opacity:1;display:inline"/><path d="M372.488 293.292c-4.158 1.48-12.77 6.747-16.15 10.06-13.83 8.675-15.992 24.583-19.627 33.409-2.737 6.646-2.837 21.418-2.51 27.673-7.774 21.875-27.335 55.069-34.383 89.242 16.09 8.96 44.024 3.789 68.141 4.084 14.454-33.008 35.022-101.777 52.42-160.385-3.53-3.531-5.509-1.278-9.98-3.516-4.004-2.004-13.792-6.113-18.469-6.113-5.647.96-13.696 4.397-19.442 5.546z" style="opacity:1;fill:#000;fill-opacity:1;stroke:none;stroke-width:1;stroke-linejoin:miter;stroke-miterlimit:4;stroke-dasharray:none;stroke-opacity:1;display:inline"/><path d="M339.529 329.617c1.337-6.482 3.352-10.04 6.222-15.598 3.895-7.543 9.437-15.787 12.597-17.996 2.756-1.926 9.117-2.639 13.676-3.959 6.004-3.736 11.408-5.376 16.556-6.118 7.44.006 13.848 4.068 23.754 6.478-6.278 3.002-11.374 6.648-17.228 10.92 2.205-2.836 5.555-6.71 9.67-8.04-8.37 4.19-15.054 8.087-20.515 12.956 2.964-5.03 8.463-8.249 14.397-11.157-6.667.119-14.66 5.462-21.907 13.033 5.24-7.131 9.469-14.422 19.226-18.63-1.832-1.156-3.739-1.603-5.957-.521-12.82 6.248-25.984 32.998-35.546 77.732-1.08 2.999-1.515 1.81-2.595 4.81 6.804-32.063 10.548-43.672 16.546-65.267-1.12.395-1.92 1.756-2.88 3.6.468-5.122 3.542-8.576 6.082-12.039-11.242 8.083-16.067 22.785-23.868 42.867 2.276-8.963 4.23-15.832 6.99-23.99-4.298 5.272-7.266 15.097-10.438 27.713-2.928 4.504-5.405 11.718-7.918 18.715 2.505-11.026 4.518-22.666 8.638-31.672 1.204-7.341 2.455-14.673 5.759-21.595-5.125 5.228-8.1 11.513-11.261 17.758z" style="opacity:1;fill:#333c45;fill-opacity:1;fill-rule:evenodd;stroke:none;stroke-width:1px;stroke-linecap:butt;stroke-linejoin:miter;stroke-opacity:1;display:inline"/><path d="M435.541 285.323c15.862-1.303 23.627-1.118 32.916 2.73 6.819 36.05-1.66 52.891-5.756 59.684-33.35 30.273-51.048 95.745-63.47 103.616-22.183 6.734-66.935 18.066-87.012 8.994-3.624-1.814 11.997-30.857 13.415-34.332 19.37-53.325 40.076-86.245 61.565-106.501 5.644-6.838 14.022-16.644 18.499-20.71 10.229-8.132 16.394-11.72 29.843-13.48z" style="opacity:1;fill:#180c13;fill-opacity:1;stroke:none;stroke-width:1;stroke-linejoin:miter;stroke-miterlimit:4;stroke-dasharray:none;stroke-opacity:1;display:inline"/><path d="M316.875 299.372c-3.63.66-9.84 3.988-11.823 8.246-2.729 1.56-6.876 8.304-6.456 10.968-3.61 1.913-11.505 16.397-10.968 20.691-4.344-.988-30.232 55.042-31.97 65.341l3.86-1.133 16.13-33.404 3.5 1.01 5.524-24.658 5.056-5.056 10.112-21.158c1.395.32 2.294-.762 2.754-1.821l.943 1.3 4.315-3.524 1.011-4.978c-.158 3.264.566 5.056 1.478 6.534.114-7.358 1.07-14.21 6.534-18.358z" style="fill:#d2d9e1;fill-opacity:1;fill-rule:evenodd;stroke:none;stroke-width:1px;stroke-linecap:butt;stroke-linejoin:miter;stroke-opacity:1;display:inline"/><path d="M327.434 418.86c-.885 1.824-4.616 11.977-4.718 15.636 23.103-51.976 30.02-80.736 63.105-109.732-5.664 8.665-8.792 11.785-11.573 17.266-2.525 4.977-7.363 22.8-10.874 28.942-7.113 12.445-3.955 15.107-8.98 26.457 5.673-7.793 12.584-15.409 16.86-22.749 3.437-5.897 8.079-16.554 9.56-21.126 2.26-6.982 3.555-13.333 5.189-23.117 4.446-3.083 9.488-7.105 12.048-10.643 4.775-6.598 4.232-14.24 12.012-22.381 15.031-.502 21.365-3.587 42.932-11.794l.74-4.646c-6.78.001-14.245.459-21.027 1.815-28.435 5.687-24.229 13.999-45.29 33.968-31.18 29.563-41.861 59.336-59.984 102.104z" style="fill:#702740;fill-opacity:1;fill-rule:evenodd;stroke:none;stroke-width:1px;stroke-linecap:butt;stroke-linejoin:miter;stroke-opacity:1;display:inline"/><path d="M381.452 344.138c-2.686 5.625-9.19 17.502-9.782 18.57-.59 1.068-7.28 11.94-10.541 23.728 3.681-4.885 10.6-14.036 11.146-14.936.7-1.152 8.075-21.63 9.177-27.362zM369.627 359.83c.88-6.227 3.324-12.66 6.414-17.829 2.489-4.164 5.21-8.355 8.057-12.452-.814 5.323-6.505 13.352-8.054 16.456-2.042 3.861-4.26 7.541-6.417 13.826z" style="fill:#180c13;fill-opacity:1;fill-rule:evenodd;stroke:none;stroke-width:1px;stroke-linecap:butt;stroke-linejoin:miter;stroke-opacity:1;display:inline"/><path d="M368.583 337.988c11.795-16.017 31.726-32.978 41.37-41.94-7.644 9.277-7.955 21.473-25.827 35.565l4.46-5.928c5.324-5.13 8.97-12.985 13.746-19.476-6.386 6.528-18.074 13.906-33.749 31.779z" style="fill:#c46d8b;fill-opacity:1;fill-rule:evenodd;stroke:none;stroke-width:1px;stroke-linecap:butt;stroke-linejoin:miter;stroke-opacity:1;display:inline"/><path d="M384.4 328.5c.631-.631 17.028-21.064 17.028-21.064l-3.91 7.063-13.117 14zM411.896 296.841l7.19-5.928 29.64-6.81-28.505 8.198-8.325 4.54z" style="fill:#180c13;fill-opacity:1;fill-rule:evenodd;stroke:none;stroke-width:1px;stroke-linecap:butt;stroke-linejoin:miter;stroke-opacity:1;display:inline"/><path d="m411.644 295.39 7.19-5.927 29.64-6.811-28.505 8.198-8.325 4.54z" style="fill:#c46d8b;fill-opacity:1;fill-rule:evenodd;stroke:none;stroke-width:1px;stroke-linecap:butt;stroke-linejoin:miter;stroke-opacity:1;display:inline"/><path d="M453.421 316.088c-6.57 1.126-15.722 1.5-21.81 3.76-5.194 1.929-23.352 15.251-26.468 19.71-2.482 3.553-6.426 14.826-8.303 22.335 2.815-6.57 9.056-16.886 11.12-19.52 3.28-4.185 21.79-15.473 26.467-17.457 6.385-2.708 13.89-2.628 20.836-3.942l-1.842-4.886z" style="fill:#311522;fill-opacity:1;fill-rule:evenodd;stroke:none;stroke-width:1px;stroke-linecap:butt;stroke-linejoin:miter;stroke-opacity:1;display:inline"/><path d="M453.574 325.48c-10.325 4.505-25.55 8.903-31.164 13.515-11.292 9.276-17.295 25.517-20.407 38.466 7.483-14.493 16.087-27.523 27.222-37.177 4.484-3.888 14.775-7.108 23.786-11.426l.563-3.378zM415.91 378.606c11.366-21.614 25.579-35.609 38.227-41.3l-1.126 4.505c-10.301 4.919-16.065 12.107-20.293 20.063 5.522-6.668 13.4-11.451 21.419-16.121l.067 6.948c-10.9 4.906-26.082 13.984-38.294 25.905z" style="fill:#311522;fill-opacity:1;fill-rule:evenodd;stroke:none;stroke-width:1px;stroke-linecap:butt;stroke-linejoin:miter;stroke-opacity:1;display:inline"/><path d="m57.531 300.403.78 50.004 11.806 3.936-.712-47.733-11.874-6.207z" style="fill:#332a19;fill-opacity:1;fill-rule:evenodd;stroke:none;stroke-width:1px;stroke-linecap:butt;stroke-linejoin:miter;stroke-opacity:1;display:inline"/><path d="m74.56 312.988 10.45 5.63.078 41.515-9.42-3.291-1.107-43.854zM104.313 336.736l2.138 1.425-3.562 2.137c1.41 4.265 7.347 4.649 13.06 5.224-2.768 3.835-6.397 6.758-15.435 6.887-2.638-4.327-1.554-7.91-1.188-11.636.325-3.13 2.855-4.268 4.987-4.037z" style="fill:#24231e;fill-opacity:1;fill-rule:evenodd;stroke:none;stroke-width:1px;stroke-linecap:butt;stroke-linejoin:miter;stroke-opacity:1;display:inline"/><path d="m54.976 390.749 26.552 19.722.299 13.68-26.05-20.289-.8-13.113zM87.186 407.816l29.816 22.025 1.221-8.873-30.427-21.697-.61 8.545z" style="fill:#2a2923;fill-opacity:1;fill-rule:evenodd;stroke:none;stroke-width:1px;stroke-linecap:butt;stroke-linejoin:miter;stroke-opacity:1;display:inline"/><path d="m87.796 412.7.305 4.882 27.022 20.85-.306-5.798-27.02-19.935z" style="fill:#1f1e1a;fill-opacity:1;fill-rule:evenodd;stroke:none;stroke-width:1px;stroke-linecap:butt;stroke-linejoin:miter;stroke-opacity:1;display:inline"/><path d="M58.065 383.155v-6.247l13.387 8.925-.446 5.8-12.941-8.478z" style="fill:#22221d;fill-opacity:1;fill-rule:evenodd;stroke:none;stroke-width:1px;stroke-linecap:butt;stroke-linejoin:miter;stroke-opacity:1;display:inline"/><path d="m264.194 286.927-21.595 7.725 1.932.702 20.717-7.373-1.054-1.054zM243.126 301.148l-45.999 13.519c-2.63 1.463-4.391 2.926-5.618 4.39 1.558-1.48 3.666-2.85 7.55-3.863l44.067-12.817v-1.229z" style="fill:#949ca0;fill-opacity:1;fill-rule:evenodd;stroke:none;stroke-width:1px;stroke-linecap:butt;stroke-linejoin:miter;stroke-opacity:1;display:inline"/><path d="M45.26 267.79c2.52 2.883 5.325 4.772 8.779 4.39-7.472 1.54-8.696-2.2-8.779-4.39z" style="fill:#7e7e70;fill-opacity:1;fill-rule:evenodd;stroke:none;stroke-width:1px;stroke-linecap:butt;stroke-linejoin:miter;stroke-opacity:1;display:inline"/><path d="m243.863 396.601-46.665 19.452 13.102-4.426 31.542-13.562 2.021-1.464z" style="fill:#57574d;fill-opacity:1;fill-rule:evenodd;stroke:none;stroke-width:1px;stroke-linecap:butt;stroke-linejoin:miter;stroke-opacity:1;display:inline"/><path d="m11.559 357.354-2.42 16.905-3.335-105.627 3.502 2.23 2.253 86.492z" style="fill:#605338;fill-opacity:.796053;fill-rule:evenodd;stroke:none;stroke-width:1px;stroke-linecap:butt;stroke-linejoin:miter;stroke-opacity:1;display:inline"/><path d="M-3.286 230.276c19.082.8 30.133-3.084 34.897-1.847-4.034 4.612-21.185 5.78-34.27 5.205l-.627-3.358z" style="fill:#a7a9a9;fill-opacity:1;fill-rule:evenodd;stroke:none;stroke-width:1px;stroke-linecap:butt;stroke-linejoin:miter;stroke-opacity:1;display:inline"/><path d="M78.274 243.41c4.325-1.372 6.819-3.157 9.559-2.417 3.293.89 1.403-8.18-.025-8.162l-10.638.132c.103 5.285 1.705 5.027 1.104 10.447z" style="fill:#7d8188;fill-opacity:1;fill-rule:evenodd;stroke:none;stroke-width:1px;stroke-linecap:butt;stroke-linejoin:miter;stroke-opacity:1;display:inline"/><path d="M366.3 456.479c10.706-5.228 23.235-4.475 31.408-19.237 2.596-4.69 2.477-23.365 3.14-29.837 1.026-10.004 20.273-25.975 23.557-29.445 8.083-8.544 17.45-15.99 33.37-18.845-9.899 11.426-18.703 20.849-21.874 26.546-3.66 6.575-12.21 37.27-15.03 56.292-.755 5.098-6.454 10.387-25.126 16.489l-29.445-1.963z" style="opacity:.908046;fill:#10080d;fill-opacity:1;fill-rule:evenodd;stroke:none;stroke-width:1px;stroke-linecap:butt;stroke-linejoin:miter;stroke-opacity:1;display:inline"/><path d="m83.414 460.083-32.436-24.64-.561-5.883 4.83-4.103-.13-6.917 3.484 5.263 3.603 2.702-.687 3.985-2.097-1.19-5.855 1.525 31.77 23.664 9.248 2.787-11.169 2.807z" style="fill:#0c0907;fill-opacity:1;fill-rule:evenodd;stroke:none;stroke-width:1px;stroke-linecap:butt;stroke-linejoin:miter;stroke-opacity:1;display:inline"/><path d="M452.654-41.375h58.029v522.258h-58.029z" style="opacity:1;fill:#fff;fill-opacity:1;stroke:none;stroke-width:1;stroke-linejoin:miter;stroke-miterlimit:4;stroke-dasharray:none;stroke-opacity:1;display:inline"/><path d="M2.499-24.294h58.029v522.258H2.499zM-510.146-22.499h58.029v522.258h-58.029z" style="opacity:1;fill:#fff;fill-opacity:1;stroke:none;stroke-width:1;stroke-linejoin:miter;stroke-miterlimit:4;stroke-dasharray:none;stroke-opacity:1;display:inline" transform="rotate(-90)"/><path d="M-61.456-34.302h58.029v522.258h-58.029z" style="opacity:1;fill:#fff;fill-opacity:1;stroke:none;stroke-width:1;stroke-linejoin:miter;stroke-miterlimit:4;stroke-dasharray:none;stroke-opacity:1;display:inline"/></svg>