<?xml version="1.0" ?>
<svg height="512" style="background-color: rgb(65, 202, 181, 0.2715005874633789)" version="1.1" width="512" xmlns="http://www.w3.org/2000/svg">
  <defs/>
  <g>
    <path d="M 539.2988891601562 434.8294372558594 C 549.43994140625 518.1622314453125 550.1344604492188 525.8577270507812 374.2411804199219 532.9225463867188 C 308.1717529296875 563.2000122070312 288.22515869140625 563.2000122070312 287.3292541503906 498.0274963378906 C 362.9682312011719 349.9717712402344 365.1724548339844 320.30413818359375 442.9830322265625 256.7164611816406 C 563.2000122070312 308.8987731933594 563.2000122070312 327.62744140625 539.2988891601562 434.8294372558594" fill="rgb(18, 99, 122)" opacity="0.9473174" stroke="rgb(0, 0, 0)" stroke-linecap="round" stroke-linejoin="round" stroke-opacity="1.0" stroke-width="0"/>
    <path d="M 282.3314208984375 476.72149658203125 C 309.6571960449219 526.162109375 300.440185546875 534.2544555664062 191.25823974609375 526.6839599609375 C -51.20000076293945 519.4736328125 -51.20000076293945 512.520751953125 -44.32998275756836 474.02984619140625 C -29.75293731689453 191.89886474609375 -29.634069442749023 176.55758666992188 51.158409118652344 149.84742736816406 C 224.75611877441406 235.34170532226562 250.3162078857422 224.47755432128906 282.3314208984375 476.72149658203125" fill="rgb(19, 112, 131)" opacity="0.959467" stroke="rgb(0, 0, 0)" stroke-linecap="round" stroke-linejoin="round" stroke-opacity="1.0" stroke-width="0"/>
    <path d="M 270.3167724609375 351.3324890136719 C 288.5682067871094 441.0284118652344 299.84356689453125 476.1644287109375 99.37477111816406 478.01434326171875 C 39.39191818237305 524.4318237304688 67.84190368652344 492.2517395019531 70.06895446777344 159.47410583496094 C 27.333784103393555 128.4358673095703 20.81383514404297 145.71783447265625 141.23849487304688 107.69042205810547 C 250.0659637451172 135.1982879638672 249.72071838378906 153.17498779296875 270.3167724609375 351.3324890136719" fill="rgb(255, 161, 4)" opacity="1.0" stroke="rgb(0, 0, 0)" stroke-linecap="round" stroke-linejoin="round" stroke-opacity="1.0" stroke-width="0"/>
    <path d="M 453.6272277832031 52.243812561035156 C 293.820068359375 246.46978759765625 178.53077697753906 90.14306640625 68.91741943359375 162.8763885498047 C 4.283792495727539 237.61856079101562 -6.577956676483154 221.279052734375 -8.044825553894043 109.01034545898438 C -16.673166275024414 -18.01561164855957 -9.081193923950195 -22.467647552490234 79.52143859863281 -28.398649215698242 C 234.61424255371094 -48.10819625854492 269.55224609375 -45.2650146484375 453.6272277832031 52.243812561035156" fill="rgb(23, 131, 168)" opacity="0.8809685" stroke="rgb(0, 0, 0)" stroke-linecap="round" stroke-linejoin="round" stroke-opacity="1.0" stroke-width="0"/>
    <path d="M 529.772705078125 73.157958984375 C 413.6934509277344 255.2554168701172 418.9153747558594 270.176025390625 311.7347412109375 279.57421875 C 275.3687744140625 305.41192626953125 316.2860412597656 290.6662902832031 188.38589477539062 64.1039047241211 C 203.31069946289062 83.70257568359375 232.41600036621094 101.35613250732422 465.55584716796875 48.9700927734375 C 562.31494140625 7.305222988128662 562.4600219726562 26.947513580322266 529.772705078125 73.157958984375" fill="rgb(52, 165, 108)" opacity="0.5923852" stroke="rgb(0, 0, 0)" stroke-linecap="round" stroke-linejoin="round" stroke-opacity="1.0" stroke-width="0"/>
    <path d="M 500.95556640625 46.65595626831055 C 244.05914306640625 265.1037292480469 235.99327087402344 285.14117431640625 231.68995666503906 157.18692016601562 C 100.14667510986328 90.25598907470703 81.13829803466797 146.18399047851562 56.60959243774414 150.84922790527344 C 151.3296661376953 145.19863891601562 130.82382202148438 137.50193786621094 175.7314910888672 -38.68367385864258 C 316.59735107421875 -32.776817321777344 319.2242431640625 -10.760173797607422 500.95556640625 46.65595626831055" fill="rgb(23, 148, 185)" opacity="0.46825248" stroke="rgb(0, 0, 0)" stroke-linecap="round" stroke-linejoin="round" stroke-opacity="1.0" stroke-width="0"/>
    <path d="M 457.8934631347656 351.0899963378906 C 474.388427734375 500.1995849609375 546.620849609375 477.0166320800781 331.93328857421875 479.65252685546875 C 208.71043395996094 489.6443786621094 213.2543182373047 485.1703186035156 189.69273376464844 427.7110595703125 C 201.83917236328125 167.60678100585938 219.46722412109375 167.47227478027344 358.5277404785156 150.616455078125 C 511.06219482421875 185.87677001953125 478.85015869140625 185.2260284423828 457.8934631347656 351.0899963378906" fill="rgb(109, 152, 124)" opacity="0.9086967" stroke="rgb(0, 0, 0)" stroke-linecap="round" stroke-linejoin="round" stroke-opacity="1.0" stroke-width="0"/>
    <path d="M 563.1978149414062 212.8668670654297 C 562.8914794921875 320.41497802734375 563.2000122070312 324.8935546875 477.7460021972656 201.71176147460938 C 408.84771728515625 204.33216857910156 436.3743591308594 282.6873474121094 425.2167663574219 162.13287353515625 C 282.8909912109375 166.07765197753906 307.2907409667969 161.83042907714844 499.550537109375 25.45984649658203 C 479.8112487792969 73.21304321289062 514.1298217773438 117.5913314819336 563.1978149414062 212.8668670654297" fill="rgb(191, 92, 0)" opacity="0.9764167" stroke="rgb(0, 0, 0)" stroke-linecap="round" stroke-linejoin="round" stroke-opacity="1.0" stroke-width="0"/>
    <path d="M 374.4482727050781 280.6392517089844 C 367.4938659667969 397.2249450683594 367.936767578125 446.2001953125 347.0296630859375 517.9154052734375 C 200.74215698242188 372.5629577636719 228.03744506835938 317.9718933105469 258.29217529296875 297.9046325683594 C 298.87969970703125 280.4344177246094 295.55792236328125 260.2637634277344 361.9932861328125 157.46646118164062 C 389.5757141113281 176.20590209960938 369.6183166503906 202.1015167236328 374.4482727050781 280.6392517089844" fill="rgb(26, 160, 163)" opacity="0.6744414" stroke="rgb(0, 0, 0)" stroke-linecap="round" stroke-linejoin="round" stroke-opacity="1.0" stroke-width="0"/>
    <path d="M 380.0576477050781 198.13951110839844 C 379.0748291015625 217.50926208496094 428.5833435058594 253.78411865234375 359.8528137207031 470.9342041015625 C 353.9502258300781 229.75489807128906 362.3565673828125 217.69992065429688 359.69622802734375 230.451904296875 C 353.6143493652344 179.12705993652344 351.4160461425781 173.80027770996094 367.9957275390625 100.62092590332031 C 389.7713317871094 153.3556365966797 375.1051330566406 184.97337341308594 380.0576477050781 198.13951110839844" fill="rgb(117, 57, 58)" opacity="0.258877" stroke="rgb(0, 0, 0)" stroke-linecap="round" stroke-linejoin="round" stroke-opacity="1.0" stroke-width="0"/>
    <path d="M 364.750732421875 51.973175048828125 C 331.835693359375 105.06490325927734 312.3556823730469 103.37085723876953 72.76899719238281 91.43666076660156 C 29.09965705871582 81.80223083496094 23.032773971557617 84.81434631347656 15.754870414733887 66.42326354980469 C 9.704181671142578 24.746755599975586 9.711701393127441 19.274152755737305 2.506107807159424 31.318313598632812 C 179.62460327148438 26.64444351196289 188.41046142578125 45.233097076416016 364.750732421875 51.973175048828125" fill="rgb(255, 148, 0)" opacity="1.0" stroke="rgb(0, 0, 0)" stroke-linecap="round" stroke-linejoin="round" stroke-opacity="1.0" stroke-width="0"/>
    <path d="M 383.4116516113281 219.1431121826172 C 291.7735290527344 316.43316650390625 315.3851623535156 371.0908508300781 224.0769805908203 431.6628723144531 C 128.5867919921875 404.57037353515625 153.10043334960938 400.35223388671875 143.8135986328125 152.99488830566406 C 148.82058715820312 114.68170166015625 107.84014892578125 120.76068878173828 337.9886779785156 149.86192321777344 C 352.3807067871094 156.39993286132812 360.046875 136.04586791992188 383.4116516113281 219.1431121826172" fill="rgb(29, 146, 187)" opacity="0.835855" stroke="rgb(0, 0, 0)" stroke-linecap="round" stroke-linejoin="round" stroke-opacity="1.0" stroke-width="0"/>
    <path d="M 383.9924011230469 221.8560333251953 C 380.60736083984375 254.17776489257812 386.6377868652344 295.3927307128906 394.8515625 478.04931640625 C 346.9549865722656 473.90380859375 358.4916076660156 498.41705322265625 359.1995544433594 300.5305480957031 C 368.43426513671875 19.730873107910156 356.416259765625 95.7751693725586 378.8233337402344 83.2562026977539 C 384.73126220703125 236.92697143554688 388.3829650878906 306.7200622558594 383.9924011230469 221.8560333251953" fill="rgb(184, 71, 0)" opacity="1.0" stroke="rgb(0, 0, 0)" stroke-linecap="round" stroke-linejoin="round" stroke-opacity="1.0" stroke-width="0"/>
    <path d="M 349.9819030761719 129.79592895507812 C 338.3155517578125 168.8071746826172 463.9881896972656 161.42745971679688 170.57066345214844 163.73292541503906 C 32.40586471557617 167.57357788085938 41.782405853271484 133.9266815185547 142.3688201904297 89.5906982421875 C 201.28549194335938 185.09664916992188 289.541748046875 14.72171688079834 560.6095581054688 96.92073822021484 C 136.0736083984375 77.77421569824219 62.790382385253906 136.9383544921875 349.9819030761719 129.79592895507812" fill="rgb(255, 118, 0)" opacity="1.0" stroke="rgb(0, 0, 0)" stroke-linecap="round" stroke-linejoin="round" stroke-opacity="1.0" stroke-width="0"/>
    <path d="M 523.0333862304688 99.99127960205078 C 562.7757568359375 127.22232818603516 365.7764892578125 134.25283813476562 379.2536926269531 70.64842987060547 C 536.6533203125 70.71190643310547 518.93115234375 31.05110740661621 489.90924072265625 -46.55854034423828 C 280.431884765625 20.798837661743164 326.5350646972656 -44.44037628173828 431.6744689941406 -34.79733657836914 C 541.1671752929688 -9.033132553100586 532.3682861328125 19.703245162963867 523.0333862304688 99.99127960205078" fill="rgb(35, 128, 139)" opacity="0.93343943" stroke="rgb(0, 0, 0)" stroke-linecap="round" stroke-linejoin="round" stroke-opacity="1.0" stroke-width="0"/>
    <path d="M 364.4633483886719 46.41520690917969 C 356.4312744140625 57.437538146972656 286.2201843261719 95.95128631591797 358.93865966796875 97.61150360107422 C 525.7178344726562 89.3724365234375 483.9237365722656 71.6911392211914 500.2693786621094 29.575580596923828 C 355.67645263671875 60.2390251159668 364.59637451171875 51.43840026855469 353.0252990722656 50.21268844604492 C 371.94989013671875 44.82958221435547 364.3675537109375 54.070411682128906 364.4633483886719 46.41520690917969" fill="rgb(175, 48, 0)" opacity="0.95851916" stroke="rgb(0, 0, 0)" stroke-linecap="round" stroke-linejoin="round" stroke-opacity="1.0" stroke-width="0"/>
    <path d="M 435.5299377441406 450.4083557128906 C 445.3155212402344 482.1470642089844 451.9029235839844 464.57257080078125 442.4267272949219 480.3033752441406 C 384.48846435546875 474.3894958496094 409.21661376953125 489.0233459472656 402.8807373046875 451.76141357421875 C 415.9252014160156 233.1229248046875 436.6168212890625 85.70079040527344 440.00115966796875 121.56661987304688 C 428.4031066894531 331.6477355957031 431.5062255859375 388.09637451171875 435.5299377441406 450.4083557128906" fill="rgb(190, 82, 0)" opacity="1.0" stroke="rgb(0, 0, 0)" stroke-linecap="round" stroke-linejoin="round" stroke-opacity="1.0" stroke-width="0"/>
    <path d="M 536.2634887695312 -6.144829750061035 C 542.0952758789062 24.844318389892578 540.6220703125 23.150327682495117 506.8945617675781 27.006338119506836 C 432.8547668457031 47.5351448059082 412.95635986328125 57.68500900268555 391.4002380371094 5.008880615234375 C 416.19854736328125 -39.035953521728516 442.39630126953125 -26.430774688720703 461.12860107421875 -14.504416465759277 C 485.6542663574219 -6.003422260284424 498.19879150390625 -10.411243438720703 536.2634887695312 -6.144829750061035" fill="rgb(27, 157, 153)" opacity="1.0" stroke="rgb(0, 0, 0)" stroke-linecap="round" stroke-linejoin="round" stroke-opacity="1.0" stroke-width="0"/>
    <path d="M 326.3901062011719 416.1833801269531 C 348.1932373046875 466.6947326660156 333.84771728515625 483.9170837402344 186.52171325683594 546.3195190429688 C 136.03488159179688 519.7421264648438 142.9182891845703 559.0201416015625 145.6160125732422 306.2283630371094 C 224.04176330566406 334.5472412109375 233.19735717773438 374.91986083984375 255.9307098388672 382.50506591796875 C 285.00115966796875 383.747802734375 296.99560546875 381.83477783203125 326.3901062011719 416.1833801269531" fill="rgb(58, 167, 195)" opacity="0.9660244" stroke="rgb(0, 0, 0)" stroke-linecap="round" stroke-linejoin="round" stroke-opacity="1.0" stroke-width="0"/>
    <path d="M 379.478759765625 443.2554626464844 C 385.3990783691406 466.5513000488281 411.7632141113281 469.5180969238281 380.70660400390625 477.8969421386719 C 352.5706481933594 482.701171875 356.9322509765625 489.4308776855469 363.4119567871094 455.1669921875 C 365.6715087890625 382.4559020996094 352.45367431640625 422.7802734375 374.41986083984375 418.06353759765625 C 378.5006103515625 434.75128173828125 379.2960510253906 457.1541442871094 379.478759765625 443.2554626464844" fill="rgb(168, 79, 0)" opacity="0.39785734" stroke="rgb(0, 0, 0)" stroke-linecap="round" stroke-linejoin="round" stroke-opacity="1.0" stroke-width="0"/>
    <path d="M 442.4577331542969 42.15335464477539 C 306.46221923828125 66.6903076171875 246.76817321777344 45.71929931640625 216.254638671875 56.42357635498047 C 180.22622680664062 48.01766586303711 125.98783111572266 61.301658630371094 20.447574615478516 32.1023063659668 C 36.62004089355469 -41.579429626464844 70.64002990722656 -45.81204605102539 208.82269287109375 -48.21461486816406 C 317.75567626953125 -51.20000076293945 360.6181640625 -51.20000076293945 442.4577331542969 42.15335464477539" fill="rgb(43, 155, 186)" opacity="1.0" stroke="rgb(0, 0, 0)" stroke-linecap="round" stroke-linejoin="round" stroke-opacity="1.0" stroke-width="0"/>
    <path d="M 492.7110595703125 403.8194274902344 C 498.2690124511719 439.09088134765625 519.4006958007812 463.2803649902344 435.7198791503906 487.760009765625 C 433.8870849609375 420.2007141113281 433.40692138671875 398.8040466308594 434.9313049316406 410.9738464355469 C 439.4306640625 406.84063720703125 432.3145446777344 400.44281005859375 431.8297119140625 312.56396484375 C 510.9056091308594 342.4727783203125 491.4378356933594 361.8905334472656 492.7110595703125 403.8194274902344" fill="rgb(31, 146, 146)" opacity="0.7341434" stroke="rgb(0, 0, 0)" stroke-linecap="round" stroke-linejoin="round" stroke-opacity="1.0" stroke-width="0"/>
    <path d="M 361.4731140136719 134.50906372070312 C 371.1117248535156 85.29315948486328 361.9443359375 112.817138671875 318.84820556640625 106.16938018798828 C 372.78570556640625 123.36839294433594 388.9692077636719 122.58382415771484 340.3528747558594 110.05017852783203 C 336.5202941894531 129.3040008544922 342.052978515625 123.74005889892578 211.3114776611328 108.09146881103516 C 326.84893798828125 117.83063507080078 375.9127502441406 140.67996215820312 361.4731140136719 134.50906372070312" fill="rgb(200, 64, 22)" opacity="0.77003545" stroke="rgb(0, 0, 0)" stroke-linecap="round" stroke-linejoin="round" stroke-opacity="1.0" stroke-width="0"/>
    <path d="M 563.2000122070312 155.6175537109375 C 553.7816162109375 355.8381652832031 474.8038330078125 350.8348083496094 455.5638732910156 329.54443359375 C 448.7102355957031 240.08668518066406 436.0054016113281 249.04310607910156 435.9303894042969 250.21917724609375 C 437.57489013671875 240.22357177734375 428.7451171875 252.26211547851562 433.6602783203125 160.5738525390625 C 522.20068359375 182.4830322265625 457.1984558105469 42.797630310058594 563.2000122070312 155.6175537109375" fill="rgb(48, 162, 172)" opacity="0.96833754" stroke="rgb(0, 0, 0)" stroke-linecap="round" stroke-linejoin="round" stroke-opacity="1.0" stroke-width="0"/>
    <path d="M 115.4509506225586 316.3040771484375 C 101.4671859741211 544.5281372070312 115.31452178955078 474.4321594238281 94.48536682128906 490.4610595703125 C 91.71464538574219 364.6693420410156 93.75724792480469 457.3594055175781 93.16346740722656 357.2457275390625 C 89.34246826171875 314.4703369140625 80.7828369140625 252.6133575439453 74.83589935302734 129.8142547607422 C 131.1131134033203 170.2852783203125 132.40798950195312 -7.539952754974365 115.4509506225586 316.3040771484375" fill="rgb(56, 94, 166)" opacity="0.7987808" stroke="rgb(0, 0, 0)" stroke-linecap="round" stroke-linejoin="round" stroke-opacity="1.0" stroke-width="0"/>
    <path d="M 113.29386901855469 497.4618835449219 C 95.46212768554688 496.6890563964844 92.73126983642578 499.5242919921875 102.95339965820312 496.7394714355469 C 74.02950286865234 499.1105651855469 79.50607299804688 504.5193176269531 58.07209777832031 498.1458435058594 C 57.09153366088867 473.7615966796875 51.871437072753906 479.6710510253906 114.28571319580078 476.9146728515625 C 95.88525390625 400.616943359375 122.49333953857422 509.790283203125 113.29386901855469 497.4618835449219" fill="rgb(46, 138, 147)" opacity="0.8106881" stroke="rgb(0, 0, 0)" stroke-linecap="round" stroke-linejoin="round" stroke-opacity="1.0" stroke-width="0"/>
    <path d="M 145.4066162109375 97.94773864746094 C 386.6275939941406 87.31692504882812 430.398681640625 109.69029998779297 147.83128356933594 132.6363525390625 C 115.8980484008789 80.83118438720703 223.46621704101562 75.05182647705078 204.8070526123047 72.43887329101562 C 185.44334411621094 84.17012023925781 200.38922119140625 80.30024719238281 193.94065856933594 75.4475326538086 C 229.78004455566406 74.17699432373047 152.16864013671875 72.31959533691406 145.4066162109375 97.94773864746094" fill="rgb(22, 143, 175)" opacity="1.0" stroke="rgb(0, 0, 0)" stroke-linecap="round" stroke-linejoin="round" stroke-opacity="1.0" stroke-width="0"/>
    <path d="M 119.10043334960938 153.5606689453125 C 122.91503143310547 88.34613800048828 135.05918884277344 131.4860076904297 106.01335906982422 136.39578247070312 C 104.2536392211914 137.0726318359375 101.97811889648438 132.1433563232422 114.08295440673828 130.792236328125 C 111.991455078125 133.8800506591797 144.01490783691406 122.46649169921875 74.61713409423828 128.31195068359375 C 73.25757598876953 150.19415283203125 55.60927963256836 143.92759704589844 119.10043334960938 153.5606689453125" fill="rgb(232, 222, 18)" opacity="0.7955387" stroke="rgb(0, 0, 0)" stroke-linecap="round" stroke-linejoin="round" stroke-opacity="1.0" stroke-width="0"/>
    <path d="M 84.51699829101562 148.603271484375 C 73.75196838378906 161.90072631835938 80.37100219726562 159.2827606201172 29.923276901245117 161.077880859375 C 27.89338493347168 155.0390625 20.745014190673828 122.62495422363281 16.732891082763672 122.86983489990234 C 8.806026458740234 125.54390716552734 9.703323364257812 114.41345977783203 20.321884155273438 120.33355712890625 C 89.77779388427734 134.8472442626953 81.39912414550781 114.93196868896484 84.51699829101562 148.603271484375" fill="rgb(255, 170, 0)" opacity="1.0" stroke="rgb(0, 0, 0)" stroke-linecap="round" stroke-linejoin="round" stroke-opacity="1.0" stroke-width="0"/>
    <path d="M 405.7312316894531 400.57666015625 C 403.22601318359375 518.724609375 407.7297668457031 488.3636474609375 389.78125 484.2959289550781 C 390.7361755371094 490.95220947265625 390.6608581542969 473.8090515136719 395.217529296875 458.7019958496094 C 396.17498779296875 469.7062072753906 397.52459716796875 456.8206481933594 383.3301086425781 166.98289489746094 C 465.47955322265625 147.05657958984375 419.6453552246094 193.5953369140625 405.7312316894531 400.57666015625" fill="rgb(1, 109, 145)" opacity="0.42122898" stroke="rgb(0, 0, 0)" stroke-linecap="round" stroke-linejoin="round" stroke-opacity="1.0" stroke-width="0"/>
    <path d="M 207.3875732421875 126.72618103027344 C 191.96533203125 135.86610412597656 181.4807586669922 128.1613311767578 258.5821533203125 131.01910400390625 C 155.8968963623047 120.24210357666016 161.64723205566406 124.72309112548828 120.18609619140625 109.8957748413086 C 160.79769897460938 101.53130340576172 181.5815887451172 103.50172424316406 168.21823120117188 122.55879974365234 C 140.29660034179688 119.5667953491211 173.61453247070312 121.40684509277344 207.3875732421875 126.72618103027344" fill="rgb(251, 165, 0)" opacity="0.97006017" stroke="rgb(0, 0, 0)" stroke-linecap="round" stroke-linejoin="round" stroke-opacity="1.0" stroke-width="0"/>
    <path d="M 470.9801330566406 122.17328643798828 C 386.2960510253906 105.20563507080078 427.6588134765625 87.55480194091797 402.26055908203125 130.37448120117188 C 367.6872253417969 130.45272827148438 384.1864013671875 90.51534271240234 376.3828125 99.38684844970703 C 361.3507385253906 93.16098022460938 383.8849792480469 85.24156188964844 369.5447082519531 101.61869049072266 C 375.95611572265625 97.75276184082031 368.5778503417969 136.92271423339844 470.9801330566406 122.17328643798828" fill="rgb(17, 163, 216)" opacity="1.0" stroke="rgb(0, 0, 0)" stroke-linecap="round" stroke-linejoin="round" stroke-opacity="1.0" stroke-width="0"/>
    <path d="M 143.939453125 86.60424041748047 C 129.67849731445312 72.97705078125 131.39549255371094 96.60450744628906 122.00743865966797 109.46422576904297 C 120.1978988647461 84.4297866821289 99.52549743652344 78.96661376953125 91.75126647949219 91.61144256591797 C 132.16473388671875 94.16874694824219 120.92249298095703 67.99028015136719 127.19108581542969 67.04471588134766 C 110.56432342529297 80.58389282226562 118.83818817138672 99.62156677246094 143.939453125 86.60424041748047" fill="rgb(171, 248, 45)" opacity="0.65081894" stroke="rgb(0, 0, 0)" stroke-linecap="round" stroke-linejoin="round" stroke-opacity="1.0" stroke-width="0"/>
    <path d="M 119.34066772460938 132.25704956054688 C 114.86801147460938 154.36196899414062 113.49534606933594 152.01400756835938 121.65290832519531 159.6206512451172 C 101.24171447753906 164.453857421875 76.48936462402344 159.17454528808594 79.0740737915039 145.36119079589844 C 116.68171691894531 124.86672973632812 127.77503967285156 113.8493881225586 130.8416748046875 123.81069946289062 C 128.0904541015625 117.66854095458984 132.87228393554688 114.30320739746094 119.34066772460938 132.25704956054688" fill="rgb(222, 120, 0)" opacity="0.91450876" stroke="rgb(0, 0, 0)" stroke-linecap="round" stroke-linejoin="round" stroke-opacity="1.0" stroke-width="0"/>
    <path d="M 92.02243041992188 145.89845275878906 C 78.52423095703125 143.22402954101562 60.545589447021484 144.95407104492188 71.40042877197266 144.89581298828125 C 66.67984771728516 193.07652282714844 71.54914093017578 187.6270751953125 84.56038665771484 151.40725708007812 C 76.79701232910156 130.88356018066406 75.20272064208984 137.54855346679688 84.142822265625 123.60223388671875 C 72.67086791992188 129.78359985351562 81.60795593261719 148.21707153320312 92.02243041992188 145.89845275878906" fill="rgb(243, 62, 80)" opacity="0.6261154" stroke="rgb(0, 0, 0)" stroke-linecap="round" stroke-linejoin="round" stroke-opacity="1.0" stroke-width="0"/>
    <path d="M 122.31490325927734 132.54737854003906 C 120.18000030517578 128.56039428710938 92.08261108398438 132.56256103515625 86.10023498535156 134.1596221923828 C 90.33621978759766 137.01705932617188 72.43251037597656 139.44937133789062 74.92166137695312 138.0241241455078 C 82.79940795898438 113.42040252685547 96.30237579345703 98.67778778076172 96.88117980957031 120.71844482421875 C 125.7608642578125 120.83150482177734 121.79588317871094 114.04903411865234 122.31490325927734 132.54737854003906" fill="rgb(11, 153, 194)" opacity="0.97643334" stroke="rgb(0, 0, 0)" stroke-linecap="round" stroke-linejoin="round" stroke-opacity="1.0" stroke-width="0"/>
    <path d="M 116.89067840576172 143.1543731689453 C 106.12100219726562 152.94972229003906 85.18159484863281 152.39100646972656 68.82137298583984 163.21502685546875 C 65.72972106933594 149.64808654785156 72.6832275390625 133.18954467773438 75.53231048583984 126.4285888671875 C 60.86041259765625 122.6561050415039 80.49927520751953 131.1553955078125 70.5126953125 127.82485961914062 C 94.30789184570312 128.0143585205078 114.34425354003906 122.7802505493164 116.89067840576172 143.1543731689453" fill="rgb(255, 163, 16)" opacity="0.98434263" stroke="rgb(0, 0, 0)" stroke-linecap="round" stroke-linejoin="round" stroke-opacity="1.0" stroke-width="0"/>
    <path d="M 163.11488342285156 85.91447448730469 C 151.27972412109375 101.83724975585938 130.2311553955078 104.36791229248047 105.67619323730469 81.69023895263672 C 101.80550384521484 88.37603759765625 104.95044708251953 85.53915405273438 117.90145874023438 66.4727783203125 C 115.08177947998047 59.99534225463867 112.65657043457031 61.22440719604492 117.09330749511719 65.80021667480469 C 132.81796264648438 60.55778121948242 147.5699005126953 61.12181091308594 163.11488342285156 85.91447448730469" fill="rgb(255, 0, 0)" opacity="1.0" stroke="rgb(0, 0, 0)" stroke-linecap="round" stroke-linejoin="round" stroke-opacity="1.0" stroke-width="0"/>
    <path d="M 209.1572723388672 94.44377136230469 C 196.31776428222656 69.79341125488281 195.67233276367188 91.98014831542969 190.49557495117188 92.60924530029297 C 182.29306030273438 93.25602722167969 162.6942138671875 86.8882827758789 161.7962646484375 86.75166320800781 C 171.25735473632812 63.408077239990234 183.67611694335938 62.83966827392578 188.83364868164062 61.14033126831055 C 208.4526824951172 52.935447692871094 207.2577362060547 64.361328125 209.1572723388672 94.44377136230469" fill="rgb(255, 143, 0)" opacity="1.0" stroke="rgb(0, 0, 0)" stroke-linecap="round" stroke-linejoin="round" stroke-opacity="1.0" stroke-width="0"/>
    <path d="M 212.416259765625 65.06763458251953 C 218.22445678710938 81.52127075195312 209.3942413330078 89.64482879638672 199.10504150390625 99.09046173095703 C 177.29974365234375 99.83533477783203 171.99435424804688 91.5645751953125 188.67495727539062 84.65080261230469 C 189.98297119140625 60.159122467041016 198.86642456054688 48.99772262573242 228.43026733398438 53.921485900878906 C 229.8812713623047 51.92761993408203 213.1896209716797 54.82049560546875 212.416259765625 65.06763458251953" fill="rgb(255, 115, 0)" opacity="0.516116" stroke="rgb(0, 0, 0)" stroke-linecap="round" stroke-linejoin="round" stroke-opacity="1.0" stroke-width="0"/>
    <path d="M 382.89532470703125 99.27465057373047 C 394.4398193359375 118.47099304199219 383.5734558105469 121.37803649902344 371.3522033691406 114.44074249267578 C 366.5531311035156 118.7897720336914 364.98779296875 103.57826232910156 370.4317932128906 112.91346740722656 C 367.1366271972656 95.5666275024414 364.5918884277344 85.18896484375 365.97760009765625 90.04359436035156 C 369.6264953613281 95.80872344970703 388.0738830566406 91.93366241455078 382.89532470703125 99.27465057373047" fill="rgb(231, 44, 14)" opacity="0.7246636" stroke="rgb(0, 0, 0)" stroke-linecap="round" stroke-linejoin="round" stroke-opacity="1.0" stroke-width="0"/>
    <path d="M 53.905418395996094 477.373779296875 C 51.65043258666992 485.2038879394531 45.48552703857422 496.2628479003906 41.89445495605469 500.082763671875 C 21.219743728637695 487.75634765625 11.126320838928223 480.0719299316406 -1.6300690174102783 474.8890380859375 C 17.674135208129883 466.4463806152344 19.638792037963867 454.2867126464844 25.016096115112305 444.0452880859375 C 36.25576400756836 457.8604736328125 45.61697769165039 463.5604553222656 53.905418395996094 477.373779296875" fill="rgb(59, 133, 174)" opacity="0.0018219755" stroke="rgb(0, 0, 0)" stroke-linecap="round" stroke-linejoin="round" stroke-opacity="1.0" stroke-width="0"/>
    <path d="M 467.6677551269531 240.14002990722656 C 468.2864990234375 247.34791564941406 456.5340270996094 257.1991271972656 457.2135009765625 252.58737182617188 C 453.0296630859375 241.5279083251953 444.2798767089844 228.72889709472656 441.4779968261719 233.70082092285156 C 440.8028564453125 232.72657775878906 431.3883972167969 218.4434051513672 448.6189880371094 224.86546325683594 C 462.1793212890625 222.15870666503906 465.7782287597656 227.96034240722656 467.6677551269531 240.14002990722656" fill="rgb(20, 129, 191)" opacity="0.00011129928" stroke="rgb(0, 0, 0)" stroke-linecap="round" stroke-linejoin="round" stroke-opacity="1.0" stroke-width="0"/>
    <path d="M 108.81205749511719 454.7691955566406 C 115.96817779541016 460.6151123046875 108.00543212890625 471.1063537597656 89.65967559814453 476.7989501953125 C 67.80618286132812 474.6577453613281 62.24813461303711 462.85614013671875 59.04254150390625 449.9091796875 C 67.6152572631836 434.98046875 81.02983856201172 435.5601806640625 73.56917572021484 437.75872802734375 C 80.2752685546875 445.6593017578125 99.51988983154297 446.40667724609375 108.81205749511719 454.7691955566406" fill="rgb(216, 102, 135)" opacity="0.11009503" stroke="rgb(0, 0, 0)" stroke-linecap="round" stroke-linejoin="round" stroke-opacity="1.0" stroke-width="0"/>
    <path d="M 92.82417297363281 450.02203369140625 C 92.29200744628906 466.1790466308594 82.10224914550781 472.4871520996094 59.75370788574219 466.29705810546875 C 63.825828552246094 471.512451171875 70.44518280029297 470.3715515136719 78.48123931884766 471.630859375 C 75.53109741210938 471.91571044921875 80.20757293701172 456.82049560546875 69.34943389892578 431.9645080566406 C 83.27299499511719 435.0635681152344 90.58685302734375 441.5496826171875 92.82417297363281 450.02203369140625" fill="rgb(207, 66, 58)" opacity="0.047773972" stroke="rgb(0, 0, 0)" stroke-linecap="round" stroke-linejoin="round" stroke-opacity="1.0" stroke-width="0"/>
    <path d="M 307.8483581542969 157.20460510253906 C 305.2587890625 168.6131134033203 305.02581787109375 184.7789306640625 298.9324645996094 205.47763061523438 C 277.0832824707031 194.1072235107422 266.85760498046875 188.22227478027344 274.1335144042969 172.78778076171875 C 281.8923034667969 161.53567504882812 291.078369140625 154.80824279785156 304.1457214355469 147.8959503173828 C 307.24609375 141.42210388183594 312.5042419433594 162.95669555664062 307.8483581542969 157.20460510253906" fill="rgb(114, 161, 230)" opacity="0.00751994" stroke="rgb(0, 0, 0)" stroke-linecap="round" stroke-linejoin="round" stroke-opacity="1.0" stroke-width="0"/>
    <path d="M 474.201171875 506.9942321777344 C 481.3202819824219 516.268310546875 472.1027526855469 520.49169921875 469.7018127441406 514.413818359375 C 457.0662536621094 501.9150085449219 450.0645751953125 492.4278259277344 456.92864990234375 499.9057312011719 C 453.6802673339844 487.1094970703125 451.8657531738281 474.50555419921875 460.162353515625 470.5286865234375 C 457.50946044921875 487.0025939941406 458.17877197265625 499.1295166015625 474.201171875 506.9942321777344" fill="rgb(0, 110, 154)" opacity="0.0040273997" stroke="rgb(0, 0, 0)" stroke-linecap="round" stroke-linejoin="round" stroke-opacity="1.0" stroke-width="0"/>
    <path d="M 146.91983032226562 34.459598541259766 C 149.46923828125 40.75701904296875 146.89109802246094 51.06267547607422 134.9178009033203 48.82338333129883 C 121.62926483154297 49.83826446533203 110.92931365966797 49.95381546020508 114.7861557006836 29.080490112304688 C 125.08343505859375 31.25698471069336 133.65452575683594 21.683809280395508 143.60894775390625 19.97865104675293 C 137.8175811767578 17.757368087768555 146.4224853515625 27.951091766357422 146.91983032226562 34.459598541259766" fill="rgb(9, 169, 193)" opacity="0.02288165" stroke="rgb(0, 0, 0)" stroke-linecap="round" stroke-linejoin="round" stroke-opacity="1.0" stroke-width="0"/>
    <path d="M 51.11439514160156 331.3094787597656 C 54.20057678222656 329.7848815917969 44.84469223022461 338.9407043457031 36.65168380737305 350.6947937011719 C 28.463003158569336 330.80865478515625 20.064180374145508 323.5064697265625 20.884349822998047 319.96014404296875 C 22.090911865234375 315.43792724609375 27.075544357299805 304.8070068359375 37.23530578613281 299.4087829589844 C 30.87778091430664 311.4330749511719 41.49400329589844 318.871826171875 51.11439514160156 331.3094787597656" fill="rgb(22, 121, 180)" opacity="0.0" stroke="rgb(0, 0, 0)" stroke-linecap="round" stroke-linejoin="round" stroke-opacity="1.0" stroke-width="0"/>
    <path d="M 418.9387512207031 441.77886962890625 C 408.4927978515625 445.0946044921875 395.99224853515625 451.1112976074219 396.51446533203125 459.71807861328125 C 380.8420715332031 453.8843994140625 374.1032409667969 453.9990234375 383.4792175292969 442.9855041503906 C 376.3116149902344 420.5384521484375 378.73876953125 414.7830810546875 393.843994140625 416.3620300292969 C 408.90509033203125 422.6965637207031 415.3848571777344 429.4415283203125 418.9387512207031 441.77886962890625" fill="rgb(147, 85, 101)" opacity="0.0" stroke="rgb(0, 0, 0)" stroke-linecap="round" stroke-linejoin="round" stroke-opacity="1.0" stroke-width="0"/>
    <path d="M 148.2717742919922 277.6676940917969 C 148.26446533203125 284.24859619140625 140.935302734375 291.19903564453125 128.96336364746094 288.5809326171875 C 125.87254333496094 290.1904602050781 121.47259521484375 279.48480224609375 123.624755859375 271.56719970703125 C 115.55180358886719 266.546875 114.1932144165039 254.70953369140625 117.28060913085938 268.2491760253906 C 135.06875610351562 267.00634765625 145.32696533203125 267.22589111328125 148.2717742919922 277.6676940917969" fill="rgb(221, 136, 71)" opacity="0.08126038" stroke="rgb(0, 0, 0)" stroke-linecap="round" stroke-linejoin="round" stroke-opacity="1.0" stroke-width="0"/>
    <path d="M 126.01844787597656 436.6603698730469 C 134.6093292236328 465.71527099609375 131.5498809814453 473.8603820800781 115.09737396240234 468.0836181640625 C 99.9245834350586 465.3487243652344 86.26246643066406 460.82952880859375 82.93675994873047 439.91424560546875 C 87.07209777832031 428.46697998046875 100.07394409179688 430.34039306640625 119.24609375 425.8853454589844 C 130.04478454589844 425.8631286621094 144.287841796875 430.2921142578125 126.01844787597656 436.6603698730469" fill="rgb(185, 32, 200)" opacity="0.048555735" stroke="rgb(0, 0, 0)" stroke-linecap="round" stroke-linejoin="round" stroke-opacity="1.0" stroke-width="0"/>
    <path d="M 273.37457275390625 38.55656051635742 C 258.0176696777344 41.93376159667969 245.340576171875 46.08470153808594 236.1892852783203 51.04309844970703 C 239.5486297607422 57.27027893066406 228.7288818359375 51.61505126953125 231.79013061523438 47.00251388549805 C 237.28182983398438 38.916542053222656 243.05709838867188 30.158735275268555 252.15789794921875 21.7345027923584 C 264.10504150390625 18.937931060791016 269.7664489746094 27.017967224121094 273.37457275390625 38.55656051635742" fill="rgb(3, 180, 188)" opacity="0.05444383" stroke="rgb(0, 0, 0)" stroke-linecap="round" stroke-linejoin="round" stroke-opacity="1.0" stroke-width="0"/>
    <path d="M 130.6659393310547 332.11376953125 C 127.06392669677734 349.6788330078125 121.0253677368164 358.8416442871094 115.58904266357422 355.43341064453125 C 101.84984588623047 356.3134460449219 92.05845642089844 350.7033386230469 91.49314880371094 343.3597412109375 C 101.14042663574219 339.2790832519531 109.25285339355469 330.8512878417969 114.16079711914062 319.55523681640625 C 111.90421295166016 313.2101745605469 123.29471588134766 331.73681640625 130.6659393310547 332.11376953125" fill="rgb(161, 110, 125)" opacity="0.0" stroke="rgb(0, 0, 0)" stroke-linecap="round" stroke-linejoin="round" stroke-opacity="1.0" stroke-width="0"/>
    <path d="M 503.475341796875 218.65103149414062 C 504.4953918457031 224.82662963867188 495.216064453125 230.22979736328125 483.8995056152344 236.34445190429688 C 488.761474609375 226.95938110351562 481.4855651855469 217.5241241455078 470.7139892578125 212.29176330566406 C 468.1405944824219 203.10012817382812 475.485107421875 199.61724853515625 487.6811218261719 198.14895629882812 C 492.7861633300781 202.84768676757812 495.4875183105469 220.5726318359375 503.475341796875 218.65103149414062" fill="rgb(29, 152, 187)" opacity="0.044087805" stroke="rgb(0, 0, 0)" stroke-linecap="round" stroke-linejoin="round" stroke-opacity="1.0" stroke-width="0"/>
    <path d="M 455.31976318359375 252.87977600097656 C 452.0777282714844 275.3022766113281 447.5207214355469 283.0350646972656 439.0068054199219 279.49560546875 C 428.9219970703125 273.87896728515625 420.0855712890625 266.5696105957031 420.46038818359375 257.1593933105469 C 414.4028015136719 253.68743896484375 429.3502502441406 248.76499938964844 430.76922607421875 242.69837951660156 C 438.12042236328125 249.96168518066406 450.301025390625 252.20130920410156 455.31976318359375 252.87977600097656" fill="rgb(155, 167, 124)" opacity="0.07909961" stroke="rgb(0, 0, 0)" stroke-linecap="round" stroke-linejoin="round" stroke-opacity="1.0" stroke-width="0"/>
    <path d="M 506.10693359375 70.24201965332031 C 500.2075500488281 72.63457489013672 492.7590026855469 75.57758331298828 473.7242736816406 74.86094665527344 C 470.1565246582031 82.53642272949219 473.82098388671875 83.21381378173828 478.6164245605469 64.7967529296875 C 484.4516296386719 70.5772933959961 485.42254638671875 62.53899002075195 489.9145202636719 46.31824493408203 C 500.8460388183594 43.66526794433594 506.44049072265625 52.566524505615234 506.10693359375 70.24201965332031" fill="rgb(99, 80, 61)" opacity="0.013832897" stroke="rgb(0, 0, 0)" stroke-linecap="round" stroke-linejoin="round" stroke-opacity="1.0" stroke-width="0"/>
    <path d="M 46.16239547729492 181.9091796875 C 30.89241600036621 182.67654418945312 23.740673065185547 193.96888732910156 20.48410987854004 212.32147216796875 C 21.916332244873047 208.5191650390625 12.606491088867188 200.90383911132812 6.45452880859375 201.0478515625 C 22.962886810302734 192.88446044921875 30.378461837768555 185.52703857421875 33.45890808105469 170.51177978515625 C 40.983924865722656 169.46861267089844 45.075714111328125 186.84127807617188 46.16239547729492 181.9091796875" fill="rgb(61, 132, 171)" opacity="0.00040751018" stroke="rgb(0, 0, 0)" stroke-linecap="round" stroke-linejoin="round" stroke-opacity="1.0" stroke-width="0"/>
    <path d="M 116.48429107666016 331.9482116699219 C 119.11531066894531 335.88421630859375 114.42862701416016 349.236083984375 117.73588562011719 350.0058288574219 C 101.41902160644531 347.8954772949219 95.42488861083984 345.2540283203125 94.4915542602539 330.9466247558594 C 89.66325378417969 324.99853515625 95.64991760253906 315.5075378417969 96.50875091552734 317.24859619140625 C 110.83596801757812 326.82513427734375 117.43380737304688 334.39971923828125 116.48429107666016 331.9482116699219" fill="rgb(68, 78, 115)" opacity="0.0" stroke="rgb(0, 0, 0)" stroke-linecap="round" stroke-linejoin="round" stroke-opacity="1.0" stroke-width="0"/>
    <path d="M 38.93498229980469 91.0453109741211 C 34.794654846191406 87.83641815185547 30.095199584960938 110.70329284667969 35.5524787902832 105.513671875 C 15.744873046875 100.87821960449219 7.298748016357422 98.6845703125 -1.1964505910873413 88.89202880859375 C 10.216995239257812 77.25425720214844 13.851970672607422 59.358619689941406 16.11440086364746 73.2560806274414 C 22.74911880493164 82.09175872802734 30.340866088867188 89.83808135986328 38.93498229980469 91.0453109741211" fill="rgb(44, 191, 155)" opacity="0.0043014647" stroke="rgb(0, 0, 0)" stroke-linecap="round" stroke-linejoin="round" stroke-opacity="1.0" stroke-width="0"/>
    <path d="M 155.05856323242188 180.45388793945312 C 153.8614044189453 191.04525756835938 150.1552276611328 192.4357452392578 129.18856811523438 192.21255493164062 C 126.00740051269531 200.19712829589844 122.64752960205078 195.4169921875 128.02017211914062 194.33209228515625 C 130.55154418945312 179.41717529296875 138.67103576660156 170.87432861328125 143.6734619140625 159.8873748779297 C 143.4113006591797 159.1905517578125 152.5015869140625 170.51327514648438 155.05856323242188 180.45388793945312" fill="rgb(203, 110, 109)" opacity="0.007866664" stroke="rgb(0, 0, 0)" stroke-linecap="round" stroke-linejoin="round" stroke-opacity="1.0" stroke-width="0"/>
    <path d="M 200.15185546875 385.5038146972656 C 202.46258544921875 393.52203369140625 199.10511779785156 405.044921875 186.79881286621094 397.52716064453125 C 180.59259033203125 403.5845947265625 176.6549835205078 388.1551208496094 166.12489318847656 376.66973876953125 C 171.000244140625 379.3311767578125 185.47735595703125 371.22674560546875 194.70065307617188 368.298583984375 C 191.65843200683594 373.0314636230469 203.21746826171875 375.158203125 200.15185546875 385.5038146972656" fill="rgb(2, 157, 176)" opacity="0.0168563" stroke="rgb(0, 0, 0)" stroke-linecap="round" stroke-linejoin="round" stroke-opacity="1.0" stroke-width="0"/>
    <path d="M 38.407920837402344 204.91165161132812 C 38.00792694091797 205.29928588867188 31.15862274169922 219.78085327148438 19.894899368286133 219.67697143554688 C 2.8338205814361572 217.9208221435547 -5.131648063659668 220.43661499023438 -1.0261977910995483 209.482421875 C -7.797117710113525 190.89903259277344 -0.46135982871055603 190.33306884765625 17.065338134765625 196.41249084472656 C 27.898664474487305 195.08323669433594 33.80184555053711 200.69094848632812 38.407920837402344 204.91165161132812" fill="rgb(8, 131, 178)" opacity="0.047423426" stroke="rgb(0, 0, 0)" stroke-linecap="round" stroke-linejoin="round" stroke-opacity="1.0" stroke-width="0"/>
    <path d="M 78.14778137207031 59.186397552490234 C 82.01685333251953 64.45406341552734 74.35851287841797 70.55728912353516 64.72868347167969 67.59455871582031 C 55.75032043457031 62.710025787353516 43.559818267822266 64.14754486083984 43.49916076660156 58.41083908081055 C 49.097843170166016 49.439884185791016 57.74320983886719 42.39982604980469 62.326507568359375 56.05722427368164 C 73.89398193359375 47.897132873535156 81.38955688476562 51.00288009643555 78.14778137207031 59.186397552490234" fill="rgb(242, 95, 82)" opacity="0.117291965" stroke="rgb(0, 0, 0)" stroke-linecap="round" stroke-linejoin="round" stroke-opacity="1.0" stroke-width="0"/>
  </g>
</svg>
